SplineFontDB: 3.0
FontName: TinOmen
FullName: Tin Omen
FamilyName: Tin Omen
Weight: Book
Copyright: (c) 1998-2000 TeA Curran http://www.grilledcheese.com
Version: GrilledCheese.com 7/27/2000
ItalicAngle: 0
UnderlinePosition: -123
UnderlineWidth: 20
Ascent: 800
Descent: 200
InvalidEm: 0
sfntRevision: 0x00010000
LayerCount: 2
Layer: 0 0 "Back" 1
Layer: 1 0 "Fore" 0
XUID: [1021 270 -1463357204 3462436]
FSType: 2
OS2Version: 1
OS2_WeightWidthSlopeOnly: 0
OS2_UseTypoMetrics: 1
CreationTime: 964683349
ModificationTime: 1424725435
PfmFamily: 81
TTFWeight: 400
TTFWidth: 5
LineGap: 0
VLineGap: 0
Panose: 0 0 4 0 0 0 0 0 0 0
OS2TypoAscent: 843
OS2TypoAOffset: 0
OS2TypoDescent: -314
OS2TypoDOffset: 0
OS2TypoLinegap: 0
OS2WinAscent: 843
OS2WinAOffset: 0
OS2WinDescent: 314
OS2WinDOffset: 0
HheadAscent: 843
HheadAOffset: 0
HheadDescent: -314
HheadDOffset: 0
OS2SubXSize: 700
OS2SubYSize: 650
OS2SubXOff: 0
OS2SubYOff: 143
OS2SupXSize: 700
OS2SupYSize: 650
OS2SupXOff: 0
OS2SupYOff: 453
OS2StrikeYSize: 50
OS2StrikeYPos: 259
OS2CapHeight: 0
OS2XHeight: 0
OS2Vendor: 'MACR'
OS2CodePages: 00000001.00000000
OS2UnicodeRanges: 00000003.00000000.00000000.00000000
Lookup: 258 0 0 "'kern' Horizontal Kerning in Latin lookup 0" { "'kern' Horizontal Kerning in Latin lookup 0 subtable"  } ['kern' ('DFLT' <'dflt' > 'latn' <'dflt' > ) ]
MarkAttachClasses: 1
DEI: 91125
TtTable: prep
NPUSHB
 33
 19
 19
 18
 18
 17
 17
 16
 16
 15
 15
 14
 14
 13
 13
 12
 12
 11
 11
 10
 10
 9
 9
 8
 8
 3
 3
 2
 2
 1
 1
 0
 0
 1
SCANTYPE
PUSHW_1
 511
SCANCTRL
RCVT
ROUND[Grey]
WCVTP
RCVT
ROUND[Grey]
WCVTP
RCVT
ROUND[Grey]
WCVTP
RCVT
ROUND[Grey]
WCVTP
RCVT
ROUND[Grey]
WCVTP
RCVT
ROUND[Grey]
WCVTP
RCVT
ROUND[Grey]
WCVTP
RCVT
ROUND[Grey]
WCVTP
RCVT
ROUND[Grey]
WCVTP
RCVT
ROUND[Grey]
WCVTP
RCVT
ROUND[Grey]
WCVTP
RCVT
ROUND[Grey]
WCVTP
RCVT
ROUND[Grey]
WCVTP
RCVT
ROUND[Grey]
WCVTP
RCVT
ROUND[Grey]
WCVTP
RCVT
ROUND[Grey]
WCVTP
PUSHB_4
 5
 4
 70
 0
CALL
PUSHB_4
 7
 6
 70
 0
CALL
PUSHB_2
 4
 4
RCVT
ROUND[Grey]
WCVTP
PUSHB_2
 6

StartChar: .notdef
Encoding: 65536 -1 0
Width: 500
Flags: HW
LayerCount: 2
Back
Fore
SplineSet
63 0 m 1
 63 800 l 1
 438 800 l 1
 438 0 l 1
 63 0 l 1
125 63 m 1
 375 63 l 1
 375 738 l 1
 125 738 l 1
 125 63 l 1
EndSplineSet
Validated: 1
EndChar

StartChar: asterisk
Encoding: 42 42 5
Width: 483
Flags: HW
LayerCount: 2
Back
Fore
SplineSet
255 649 m 0
 255 662 266 673 279 673 c 0
 292 673 303 662 303 649 c 0
 303 636 292 624 279 624 c 0
 266 624 255 636 255 649 c 0
404 531 m 0
 404 544 415 555 428 555 c 0
 441 555 452 544 452 531 c 0
 452 518 441 507 428 507 c 0
 415 507 404 518 404 531 c 0
372 348 m 0
 372 361 383 372 396 372 c 0
 409 372 420 361 420 348 c 0
 420 335 409 324 396 324 c 0
 383 324 372 335 372 348 c 0
52 396 m 0
 52 409 63 420 76 420 c 0
 89 420 100 409 100 396 c 0
 100 383 89 372 76 372 c 0
 63 372 52 383 52 396 c 0
80 585 m 0
 80 598 91 609 104 609 c 0
 117 609 128 598 128 585 c 0
 128 572 117 560 104 560 c 0
 91 560 80 572 80 585 c 0
198 280 m 0
 198 293 209 304 222 304 c 0
 235 304 246 293 246 280 c 0
 246 267 235 255 222 255 c 0
 209 255 198 267 198 280 c 0
76 365 m 0
 87 365 99 369 110 377 c 1
 142 400 193 441 228 467 c 1
 180 490 120 517 75 535 c 0
 60 544 53 557 53 576 c 0
 53 589 57 599 65 606 c 0
 66 608 68 609 69 609 c 0
 70 609 70 609 70 608 c 0
 74 573 73 558 105 544 c 2
 139 530 l 2
 184 511 217 496 240 483 c 1
 229 591 224 628 222 651 c 1
 222 674 245 697 268 697 c 0
 278 697 283 695 283 692 c 0
 283 691 279 689 271 684 c 128
 257 676 244 661 244 645 c 0
 244 643 244 641 244 639 c 0
 247 600 258 505 260 481 c 1
 303 511 365 555 400 581 c 128
 406 586 413 588 421 588 c 0
 446 588 462 577 467 555 c 0
 466 554 465 552 464 550 c 1
 450 558 l 2
 442 562 434 564 426 564 c 0
 415 564 404 560 393 552 c 0
 364 531 285 472 273 464 c 1
 327 440 381 416 426 396 c 0
 441 387 449 374 449 355 c 0
 449 342 445 332 437 325 c 0
 435 323 433 322 432 322 c 0
 431 322 431 322 431 323 c 0
 427 357 428 373 397 387 c 0
 353 404 261 445 261 445 c 1
 273 371 281 321 281 285 c 0
 281 250 270 232 233 232 c 0
 222 232 217 233 217 236 c 0
 217 237 222 239 230 244 c 128
 246 253 256 269 256 292 c 0
 256 328 243 420 240 448 c 1
 194 413 137 372 103 348 c 128
 96 343 89 341 82 341 c 0
 56 341 41 352 36 373 c 0
 37 375 38 377 39 379 c 0
 49 373 62 365 76 365 c 0
EndSplineSet
Validated: 1
EndChar

StartChar: slash
Encoding: 47 47 6
Width: 347
Flags: HW
LayerCount: 2
Back
Fore
SplineSet
69 104 m 1
 306 612 l 1
 305 623 300 630 290 633 c 1
 290 646 l 1
 371 647 l 1
 371 574 l 1
 328 544 l 1
 90 35 l 1
 91 24 96 17 106 15 c 1
 106 0 l 1
 25 0 l 1
 25 67 l 1
 69 104 l 1
EndSplineSet
Validated: 1
EndChar

StartChar: zero
Encoding: 48 48 7
Width: 787
Flags: HW
LayerCount: 2
Back
Fore
SplineSet
653 237 m 0
 636 237 628 229 628 213 c 0
 628 196 636 188 653 188 c 0
 669 188 677 196 677 213 c 0
 677 229 669 237 653 237 c 0
600 184 m 0
 583 184 575 176 575 160 c 0
 575 143 583 135 600 135 c 0
 616 135 624 143 624 160 c 0
 624 176 616 184 600 184 c 0
552 135 m 0
 535 135 527 127 527 111 c 0
 527 94 535 86 552 86 c 0
 568 86 576 94 576 111 c 0
 576 127 568 135 552 135 c 0
720 269 m 0
 720 194 697 130 652 77 c 0
 604 23 536 -23 443 -23 c 0
 431 -23 418 -23 404 -21 c 1
 470 -182 l 1
 297 9 l 1
 266 26 242 47 226 72 c 1
 169 -18 l 1
 84 3 l 1
 192 116 l 1
 112 216 l 1
 82 269 67 327 67 388 c 0
 67 463 89 527 134 580 c 0
 184 637 254 681 353 681 c 0
 362 681 371 681 381 680 c 1
 316 839 l 1
 484 652 l 1
 518 635 544 612 561 585 c 1
 618 676 l 1
 702 654 l 1
 596 542 l 1
 674 441 l 1
 705 388 720 331 720 269 c 0
313 599 m 0
 313 616 305 624 288 624 c 0
 272 624 264 616 264 599 c 0
 264 583 272 575 288 575 c 0
 305 575 313 583 313 599 c 0
235 571 m 0
 219 571 211 563 211 547 c 0
 211 530 219 522 235 522 c 0
 252 522 260 530 260 547 c 0
 260 563 252 571 235 571 c 0
467 473 m 1
 445 526 l 1
 438 531 430 534 422 534 c 0
 377 533 340 514 310 478 c 128
 280 442 265 401 265 354 c 0
 265 325 271 298 283 272 c 2
 301 234 l 1
 395 336 l 1
 428 383 450 415 460 434 c 0
 464 443 466 456 467 473 c 1
503 386 m 2
 487 424 l 1
 397 328 l 1
 378 301 354 266 327 223 c 0
 322 213 319 201 318 188 c 1
 343 130 l 1
 350 125 357 123 365 123 c 0
 409 125 446 144 476 179 c 128
 506 214 520 256 520 304 c 0
 520 332 514 359 503 386 c 2
211 498 m 0
 211 514 203 522 186 522 c 0
 170 522 162 514 162 498 c 0
 162 481 170 473 186 473 c 0
 203 473 211 481 211 498 c 0
134 469 m 0
 117 469 109 461 109 445 c 0
 109 428 117 420 134 420 c 0
 150 420 158 428 158 445 c 0
 158 461 150 469 134 469 c 0
498 82 m 0
 482 82 474 74 474 58 c 0
 474 41 482 33 498 33 c 0
 515 33 523 41 523 58 c 0
 523 74 515 82 498 82 c 0
EndSplineSet
Validated: 1
EndChar

StartChar: one
Encoding: 49 49 8
Width: 787
Flags: HW
LayerCount: 2
Back
Fore
SplineSet
599 804 m 1
 595 801 574 785 536 757 c 0
 519 744 507 729 498 710 c 0
 487 686 482 662 482 638 c 2
 482 203 l 1
 534 149 l 1
 471 -1 l 1
 235 -1 l 1
 234 6 l 1
 257 9 287 15 325 23 c 0
 335 26 344 33 352 46 c 1
 352 556 l 2
 351 601 334 624 302 624 c 0
 289 624 273 620 252 613 c 0
 237 607 221 601 206 596 c 1
 187 601 l 1
 595 809 l 1
 599 804 l 1
465 517 m 0
 465 534 457 542 440 542 c 0
 424 542 416 534 416 517 c 0
 416 501 424 493 440 493 c 0
 457 493 465 501 465 517 c 0
465 443 m 0
 465 459 457 467 440 467 c 0
 424 467 416 459 416 443 c 0
 416 426 424 418 440 418 c 0
 457 418 465 426 465 443 c 0
465 373 m 0
 465 390 457 398 440 398 c 0
 424 398 416 390 416 373 c 0
 416 357 424 349 440 349 c 0
 457 349 465 357 465 373 c 0
465 299 m 0
 465 315 457 323 440 323 c 0
 424 323 416 315 416 299 c 0
 416 282 424 274 440 274 c 0
 457 274 465 282 465 299 c 0
EndSplineSet
Validated: 1
EndChar

StartChar: two
Encoding: 50 50 9
Width: 787
Flags: HW
LayerCount: 2
Back
Fore
SplineSet
808 286 m 5
 640 -142 l 5
 584 -76 l 5
 632 0 l 5
 372 0 l 5
 210 -182 l 5
 285 0 l 5
 245 0 l 5
 135 137 l 5
 342 137 l 5
 397 272 l 6
 408 298 414 325 414 353 c 4
 414 401 399 442 370 478 c 132
 341 514 304 533 259 534 c 4
 252 534 246 532 240 529 c 4
 225 520 213 498 213 470 c 4
 213 457 215 445 221 434 c 4
 222 433 247 395 297 320 c 5
 290 316 l 5
 -21 654 l 5
 63 676 l 5
 82 647 101 616 120 585 c 5
 139 616 169 640 210 657 c 4
 247 673 287 681 328 681 c 4
 349 681 369 679 387 675 c 4
 452 659 505 627 546 580 c 4
 591 527 614 463 614 388 c 4
 614 327 608 259 569 216 c 6
 497 137 l 5
 634 137 l 6
 676 137 718 149 732 173 c 6
 733 174 756 213 801 291 c 5
 808 286 l 5
417 599 m 4
 417 616 409 624 393 624 c 4
 376 624 368 616 368 599 c 4
 368 583 376 575 393 575 c 4
 409 575 417 583 417 599 c 4
445 571 m 4
 429 571 421 563 421 547 c 4
 421 530 429 522 445 522 c 4
 462 522 470 530 470 547 c 4
 470 563 462 571 445 571 c 4
572 445 m 4
 572 461 564 469 547 469 c 4
 531 469 523 461 523 445 c 4
 523 428 531 420 547 420 c 4
 564 420 572 428 572 445 c 4
519 498 m 4
 519 514 511 522 495 522 c 4
 478 522 470 514 470 498 c 4
 470 481 478 473 495 473 c 4
 511 473 519 481 519 498 c 4
EndSplineSet
Validated: 1
EndChar

StartChar: three
Encoding: 51 51 10
Width: 787
Flags: HW
LayerCount: 2
Back
Fore
SplineSet
359 183 m 1
 500 399 l 1
 504 405 505 412 505 419 c 0
 505 443 490 471 478 487 c 0
 456 517 424 533 381 534 c 0
 353 534 334 509 334 478 c 0
 334 459 338 445 348 427 c 0
 349 426 369 395 419 320 c 1
 412 316 l 1
 100 654 l 1
 185 676 l 1
 242 585 l 1
 261 616 291 640 331 657 c 0
 368 673 408 681 450 681 c 0
 511 681 566 660 614 617 c 128
 662 574 686 523 686 464 c 0
 686 424 671 394 642 375 c 2
 542 308 l 1
 576 290 606 264 632 230 c 128
 658 196 670 165 670 136 c 0
 670 90 651 51 613 20 c 0
 578 -9 537 -23 490 -23 c 0
 453 -23 421 -13 394 6 c 1
 163 218 l 1
 432 90 l 2
 441 85 451 83 460 83 c 0
 485 83 508 96 527 123 c 128
 546 150 556 180 556 213 c 0
 556 246 546 274 525 298 c 1
 359 183 l 1
645 478 m 0
 645 494 637 502 621 502 c 0
 604 502 596 494 596 478 c 0
 596 461 604 453 621 453 c 0
 637 453 645 461 645 478 c 0
593 530 m 0
 593 547 585 555 568 555 c 0
 552 555 544 547 544 530 c 0
 544 514 552 506 568 506 c 0
 585 506 593 514 593 530 c 0
543 579 m 0
 543 596 535 604 519 604 c 0
 502 604 494 596 494 579 c 0
 494 563 502 555 519 555 c 0
 535 555 543 563 543 579 c 0
491 632 m 0
 491 649 483 657 466 657 c 0
 450 657 442 649 442 632 c 0
 442 616 450 608 466 608 c 0
 483 608 491 616 491 632 c 0
EndSplineSet
Validated: 1
EndChar

StartChar: four
Encoding: 52 52 11
Width: 787
Flags: HW
LayerCount: 2
Back
Fore
SplineSet
616 309 m 2
 616 292 608 284 591 284 c 2
 539 284 l 2
 522 284 514 292 514 309 c 2
 514 328 l 2
 514 345 522 353 539 353 c 2
 591 353 l 2
 608 353 616 345 616 328 c 2
 616 309 l 2
681 750 m 1
 681 750 602 703 547 667 c 0
 530 654 518 639 509 620 c 0
 498 597 493 575 493 552 c 2
 493 154 l 1
 545 149 l 1
 482 0 l 1
 246 0 l 1
 245 6 l 1
 268 9 298 15 336 23 c 0
 346 26 355 34 363 47 c 1
 362 284 l 1
 282 284 l 1
 329 206 l 1
 273 140 l 1
 106 568 l 1
 112 573 l 1
 112 573 185 455 231 382 c 0
 244 362 273 353 317 353 c 2
 363 353 l 1
 363 606 l 1
 677 756 l 1
 681 750 l 1
476 284 m 0
 476 300 468 308 452 308 c 0
 435 308 427 300 427 284 c 0
 427 267 435 259 452 259 c 0
 468 259 476 267 476 284 c 0
476 209 m 0
 476 226 468 234 452 234 c 0
 435 234 427 226 427 209 c 0
 427 193 435 185 452 185 c 0
 468 185 476 193 476 209 c 0
476 140 m 0
 476 156 468 164 452 164 c 0
 435 164 427 156 427 140 c 0
 427 123 435 115 452 115 c 0
 468 115 476 123 476 140 c 0
476 65 m 0
 476 82 468 90 452 90 c 0
 435 90 427 82 427 65 c 0
 427 49 435 41 452 41 c 0
 468 41 476 49 476 65 c 0
EndSplineSet
Validated: 1
EndChar

StartChar: five
Encoding: 53 53 12
Width: 787
Flags: HW
LayerCount: 2
Back
Fore
SplineSet
704 339 m 5
 697 334 l 5
 697 334 658 403 628 452 c 4
 613 473 581 485 530 486 c 6
 384 486 l 5
 326 625 l 5
 528 625 l 5
 480 700 l 5
 536 767 l 5
 704 339 l 5
262 273 m 5
 205 323 176 385 176 459 c 6
 176 578 l 5
 168 591 159 597 149 601 c 4
 144 603 58 618 58 618 c 5
 60 625 l 5
 295 625 l 5
 358 475 l 5
 329 450 l 5
 330 413 343 381 368 352 c 6
 546 150 l 5
 555 165 560 183 560 204 c 4
 560 235 550 262 531 287 c 4
 507 317 476 332 432 332 c 4
 419 332 406 330 392 326 c 5
 423 347 463 356 518 356 c 4
 585 356 635 341 668 311 c 4
 708 275 728 231 728 179 c 4
 728 137 715 99 688 65 c 132
 661 31 626 9 582 0 c 5
 203 0 l 5
 294 27 349 44 367 50 c 4
 431 73 483 98 523 127 c 5
 262 273 l 5
699 215 m 4
 699 231 691 239 674 239 c 4
 658 239 650 231 650 215 c 4
 650 198 658 190 674 190 c 4
 691 190 699 198 699 215 c 4
699 140 m 4
 699 157 691 165 674 165 c 4
 658 165 650 157 650 140 c 4
 650 124 658 116 674 116 c 4
 691 116 699 124 699 140 c 4
251 548 m 4
 251 565 243 573 226 573 c 4
 210 573 202 565 202 548 c 4
 202 532 210 524 226 524 c 4
 243 524 251 532 251 548 c 4
251 474 m 4
 251 490 243 498 226 498 c 4
 210 498 202 490 202 474 c 4
 202 457 210 449 226 449 c 4
 243 449 251 457 251 474 c 4
251 404 m 4
 251 421 243 429 226 429 c 4
 210 429 202 421 202 404 c 4
 202 388 210 380 226 380 c 4
 243 380 251 388 251 404 c 4
EndSplineSet
Validated: 1
EndChar

StartChar: six
Encoding: 54 54 13
Width: 787
Flags: HW
LayerCount: 2
Back
Fore
SplineSet
303 -14 m 0
 238 2 184 34 143 81 c 0
 98 134 76 198 76 273 c 0
 76 334 91 392 121 445 c 1
 479 843 l 1
 292 390 l 2
 281 363 276 336 276 308 c 0
 276 260 291 218 320 182 c 128
 349 146 380 127 419 127 c 0
 448 127 477 157 477 190 c 0
 477 242 459 242 392 341 c 1
 400 345 l 1
 711 7 l 1
 627 -15 l 1
 570 76 l 1
 551 45 521 21 480 4 c 0
 443 -12 403 -20 361 -20 c 0
 340 -20 321 -18 303 -14 c 0
118 216 m 0
 118 200 126 192 142 192 c 0
 159 192 167 200 167 216 c 0
 167 233 159 241 142 241 c 0
 126 241 118 233 118 216 c 0
171 163 m 0
 171 147 179 139 195 139 c 0
 212 139 220 147 220 163 c 0
 220 180 212 188 195 188 c 0
 179 188 171 180 171 163 c 0
220 114 m 0
 220 98 228 90 244 90 c 0
 261 90 269 98 269 114 c 0
 269 131 261 139 244 139 c 0
 228 139 220 131 220 114 c 0
272 62 m 0
 272 45 280 37 297 37 c 0
 313 37 321 45 321 62 c 0
 321 78 313 86 297 86 c 0
 280 86 272 78 272 62 c 0
EndSplineSet
Validated: 1
EndChar

StartChar: seven
Encoding: 55 55 14
Width: 787
Flags: HW
LayerCount: 2
Back
Fore
SplineSet
438 627 m 5
 380 488 l 5
 234 488 l 6
 219 487 206 486 194 484 c 4
 165 478 146 468 136 454 c 4
 135 453 112 413 67 336 c 5
 61 341 l 5
 228 769 l 5
 284 702 l 5
 274 685 258 660 236 627 c 5
 438 627 l 5
726 620 m 5
 703 617 673 611 635 603 c 4
 625 600 616 593 608 580 c 5
 638 537 653 491 653 442 c 4
 653 372 622 297 560 216 c 5
 189 -152 l 5
 389 272 l 6
 398 293 408 324 419 365 c 132
 430 406 435 435 435 452 c 5
 406 477 l 5
 469 627 l 5
 725 627 l 5
 726 620 l 5
569 281 m 4
 569 298 561 306 544 306 c 4
 528 306 520 298 520 281 c 4
 520 265 528 257 544 257 c 4
 561 257 569 265 569 281 c 4
516 228 m 4
 516 245 508 253 492 253 c 4
 475 253 467 245 467 228 c 4
 467 212 475 204 492 204 c 4
 508 204 516 212 516 228 c 4
467 179 m 4
 467 196 459 204 443 204 c 4
 426 204 418 196 418 179 c 4
 418 163 426 155 443 155 c 4
 459 155 467 163 467 179 c 4
414 127 m 4
 414 143 406 151 390 151 c 4
 373 151 365 143 365 127 c 4
 365 110 373 102 390 102 c 4
 406 102 414 110 414 127 c 4
205 486 m 1028
EndSplineSet
Validated: 1
EndChar

StartChar: eight
Encoding: 56 56 15
Width: 787
Flags: HW
LayerCount: 2
Back
Fore
SplineSet
582 180 m 0
 582 127 563 83 526 46 c 128
 489 9 445 -9 393 -9 c 256
 341 -9 297 9 260 46 c 128
 223 83 204 127 204 180 c 0
 204 221 217 259 242 292 c 128
 267 325 298 348 337 360 c 1
 306 370 280 388 260 416 c 128
 240 444 230 474 230 505 c 0
 230 545 246 581 278 612 c 128
 310 643 349 659 393 659 c 256
 437 659 476 643 508 612 c 128
 540 581 556 545 556 505 c 0
 556 474 546 444 526 416 c 128
 506 388 481 370 451 360 c 1
 489 347 520 325 545 292 c 128
 570 259 582 221 582 180 c 0
473 505 m 0
 473 544 466 576 453 602 c 0
 438 631 418 645 393 645 c 0
 369 645 351 631 338 602 c 0
 327 577 322 545 322 505 c 0
 322 415 346 370 393 370 c 0
 418 370 438 384 453 411 c 0
 466 436 473 468 473 505 c 0
469 180 m 0
 469 294 444 351 394 351 c 0
 366 351 347 334 337 300 c 0
 330 277 327 237 327 180 c 0
 327 125 330 86 337 63 c 0
 347 31 366 15 394 15 c 0
 444 15 469 70 469 180 c 0
544 222 m 0
 544 238 536 246 519 246 c 0
 503 246 495 238 495 222 c 0
 495 205 503 197 519 197 c 0
 536 197 544 205 544 222 c 0
544 147 m 0
 544 164 536 172 519 172 c 0
 503 172 495 164 495 147 c 0
 495 131 503 123 519 123 c 0
 536 123 544 131 544 147 c 0
393 351 m 1024
EndSplineSet
Validated: 1
EndChar

StartChar: nine
Encoding: 57 57 16
Width: 787
Flags: HW
LayerCount: 2
Back
Fore
SplineSet
484 662 m 0
 549 647 602 615 643 567 c 0
 688 514 711 450 711 375 c 0
 711 314 696 257 665 204 c 1
 307 -195 l 1
 494 259 l 2
 505 285 511 312 511 340 c 0
 511 389 496 431 467 466 c 128
 447 490 403 524 365 524 c 0
 333 524 308 501 308 468 c 0
 308 430 326 408 394 307 c 1
 387 303 l 1
 76 641 l 1
 160 663 l 1
 217 573 l 1
 236 603 266 627 306 644 c 0
 343 661 383 669 425 669 c 0
 446 669 466 667 484 662 c 0
669 432 m 0
 669 449 661 457 644 457 c 0
 628 457 620 449 620 432 c 0
 620 416 628 408 644 408 c 0
 661 408 669 416 669 432 c 0
616 485 m 0
 616 501 608 509 591 509 c 0
 575 509 567 501 567 485 c 0
 567 468 575 460 591 460 c 0
 608 460 616 468 616 485 c 0
567 534 m 0
 567 550 559 558 542 558 c 0
 526 558 518 550 518 534 c 0
 518 517 526 509 542 509 c 0
 559 509 567 517 567 534 c 0
514 587 m 0
 514 603 506 611 490 611 c 0
 473 611 465 603 465 587 c 0
 465 570 473 562 490 562 c 0
 506 562 514 570 514 587 c 0
EndSplineSet
Validated: 1
EndChar

StartChar: colon
Encoding: 58 58 17
Width: 267
Flags: HW
LayerCount: 2
Back
Fore
SplineSet
91 173 m 1
 106 183 122 188 138 188 c 0
 163 188 184 176 199 153 c 0
 208 140 212 125 212 108 c 0
 212 75 199 49 172 32 c 2
 147 17 l 1
 161 48 l 1
 146 38 130 33 115 33 c 0
 90 33 70 45 55 69 c 0
 46 83 42 99 42 116 c 0
 42 148 55 172 80 189 c 1
 122 210 l 1
 91 173 l 1
97 382 m 1
 113 393 129 398 145 398 c 0
 170 398 191 386 206 362 c 0
 215 349 219 335 219 318 c 0
 219 285 206 259 179 242 c 2
 139 218 l 1
 168 258 l 1
 153 248 137 243 122 243 c 0
 97 243 77 255 62 278 c 0
 53 292 48 308 48 325 c 0
 48 358 61 382 87 399 c 2
 111 414 l 1
 97 382 l 1
EndSplineSet
Validated: 1
EndChar

StartChar: semicolon
Encoding: 59 59 18
Width: 271
Flags: HW
LayerCount: 2
Back
Fore
SplineSet
91 173 m 1
 106 183 122 188 138 188 c 0
 178 188 213 151 213 105 c 0
 213 74 202 45 180 18 c 1
 53 -68 l 1
 114 38 l 1
 112 38 111 38 109 38 c 0
 69 38 37 70 37 109 c 0
 37 144 51 170 80 189 c 1
 122 210 l 1
 91 173 l 1
97 382 m 5
 113 393 129 398 145 398 c 0
 183 398 219 363 219 318 c 0
 219 285 206 259 179 242 c 2
 139 218 l 1
 168 258 l 1
 153 248 137 243 122 243 c 0
 83 243 48 280 48 325 c 0
 48 358 61 382 87 399 c 2
 111 414 l 5
 97 382 l 5
EndSplineSet
Validated: 1
EndChar

StartChar: less
Encoding: 60 60 19
Width: 456
Flags: HW
LayerCount: 2
Back
Fore
SplineSet
411 185 m 0
 411 154 401 126 382 99 c 1
 192 -108 l 1
 307 134 l 2
 311 142 313 150 313 159 c 0
 313 182 301 202 277 219 c 128
 253 236 226 245 196 245 c 0
 153 245 119 226 96 188 c 1
 104 220 127 251 164 282 c 128
 201 313 235 328 268 328 c 0
 307 328 341 314 369 286 c 128
 397 258 411 224 411 185 c 0
EndSplineSet
Validated: 1
EndChar

StartChar: question
Encoding: 63 63 20
Width: 366
Flags: HW
LayerCount: 2
Back
Fore
SplineSet
363 488 m 2
 204 357 l 1
 226 310 l 1
 269 274 l 1
 269 207 l 1
 188 207 l 1
 188 221 l 1
 198 224 203 230 204 241 c 1
 157 334 l 1
 255 515 l 2
 260 525 263 535 263 546 c 0
 263 569 253 589 233 606 c 128
 213 623 190 631 165 631 c 0
 128 631 99 613 77 577 c 1
 91 633 180 717 249 717 c 0
 327 717 392 652 392 573 c 0
 392 532 382 503 363 488 c 2
223 -28 m 1
 211 -13 205 3 205 19 c 0
 205 27 206 34 209 40 c 1
 207 40 206 40 204 40 c 0
 187 40 168 29 148 7 c 1
 153 38 166 57 187 65 c 1
 171 79 150 86 124 86 c 0
 123 86 121 86 120 86 c 1
 135 96 150 102 167 102 c 0
 174 102 181 101 188 99 c 1
 187 118 185 132 181 140 c 128
 177 148 169 154 156 161 c 1
 158 161 159 161 161 161 c 0
 174 161 183 159 190 154 c 128
 198 149 206 138 214 122 c 1
 229 140 237 156 237 171 c 0
 237 176 236 182 234 189 c 1
 248 172 255 158 255 147 c 0
 255 139 253 130 248 120 c 1
 273 124 293 135 309 153 c 1
 308 124 296 104 271 95 c 1
 280 80 296 72 318 72 c 0
 324 72 330 73 337 74 c 1
 322 63 307 57 290 57 c 0
 283 57 276 58 269 61 c 1
 269 60 269 59 269 58 c 0
 269 40 280 20 301 -1 c 1
 267 6 248 19 244 38 c 1
 232 29 225 7 223 -28 c 1
EndSplineSet
Validated: 1
EndChar

StartChar: A
Encoding: 65 65 21
Width: 679
Flags: HW
LayerCount: 2
Back
Fore
SplineSet
484 0 m 1
 424 194 l 1
 405 194 l 2
 388 194 380 202 380 219 c 2
 380 238 l 2
 380 253 380 262 403 263 c 1
 338 469 l 2
 324 512 295 533 251 533 c 0
 230 533 201 528 166 517 c 0
 137 507 80 488 80 488 c 1
 60 494 l 1
 569 754 l 1
 575 748 l 1
 465 667 l 2
 439 648 436 616 436 572 c 0
 436 565 437 557 437 549 c 1
 591 84 l 2
 600 63 605 50 607 47 c 0
 615 35 625 27 636 23 c 0
 674 15 704 9 727 6 c 1
 726 0 l 1
 484 0 l 1
378 628 m 0
 378 611 386 603 403 603 c 0
 419 603 427 611 427 628 c 0
 427 644 419 652 403 652 c 0
 386 652 378 644 378 628 c 0
43 0 m 1
 264 515 l 1
 265 515 267 515 268 515 c 0
 281 515 293 508 305 494 c 128
 318 479 326 461 329 441 c 1
 288 465 l 1
 171 194 l 1
 194 128 l 1
 174 83 l 1
 182 62 187 50 189 47 c 0
 196 34 206 26 218 23 c 0
 256 15 286 9 309 6 c 1
 308 0 l 1
 43 0 l 1
119 132 m 0
 119 116 127 108 143 108 c 0
 160 108 168 116 168 132 c 0
 168 149 160 157 143 157 c 0
 127 157 119 149 119 132 c 0
89 55 m 0
 89 38 97 30 114 30 c 0
 130 30 138 38 138 55 c 0
 138 71 130 79 114 79 c 0
 97 79 89 71 89 55 c 0
314 263 m 2
 340 263 l 2
 357 263 365 255 365 238 c 2
 365 219 l 2
 365 202 357 194 340 194 c 2
 314 194 l 2
 297 194 289 202 289 219 c 2
 289 238 l 2
 289 255 297 263 314 263 c 2
244 263 m 2
 250 263 l 2
 267 263 275 255 275 238 c 2
 275 219 l 2
 275 202 267 194 250 194 c 2
 244 194 l 2
 227 194 219 202 219 219 c 2
 219 238 l 2
 219 255 227 263 244 263 c 2
EndSplineSet
Validated: 1
EndChar

StartChar: B
Encoding: 66 66 22
Width: 732
Flags: HW
LayerCount: 2
Back
Fore
SplineSet
738 190 m 0
 738 159 729 131 710 104 c 1
 484 -95 l 1
 602 132 l 2
 607 141 609 151 609 162 c 0
 609 185 598 206 577 224 c 128
 556 242 532 251 505 251 c 0
 468 251 439 233 418 198 c 1
 418 198 491 332 548 439 c 0
 553 449 556 459 556 470 c 0
 556 492 546 512 526 529 c 128
 506 546 482 555 457 555 c 0
 428 555 404 544 383 521 c 1
 383 203 l 1
 435 149 l 1
 372 -1 l 1
 136 -1 l 1
 135 6 l 1
 158 9 188 15 226 23 c 0
 236 26 245 33 253 46 c 1
 253 465 l 2
 252 506 230 527 189 527 c 0
 167 527 136 521 97 509 c 0
 65 499 0 478 0 478 c 1
 -19 482 l 1
 567 756 l 1
 571 750 l 1
 538 730 493 702 437 666 c 0
 420 654 408 638 399 619 c 0
 388 595 383 571 383 547 c 2
 383 532 l 1
 400 560 423 586 454 608 c 128
 485 630 515 641 542 641 c 0
 581 641 615 627 643 599 c 128
 671 571 685 537 685 497 c 0
 685 466 675 438 656 412 c 1
 559 327 l 1
 572 331 584 333 595 333 c 0
 634 333 668 319 696 291 c 128
 724 263 738 229 738 190 c 0
366 268 m 0
 366 285 358 293 341 293 c 0
 325 293 317 285 317 268 c 0
 317 252 325 244 341 244 c 0
 358 244 366 252 366 268 c 0
366 194 m 0
 366 210 358 218 341 218 c 0
 325 218 317 210 317 194 c 0
 317 177 325 169 341 169 c 0
 358 169 366 177 366 194 c 0
366 124 m 0
 366 141 358 149 341 149 c 0
 325 149 317 141 317 124 c 0
 317 108 325 100 341 100 c 0
 358 100 366 108 366 124 c 0
366 50 m 0
 366 66 358 74 341 74 c 0
 325 74 317 66 317 50 c 0
 317 33 325 25 341 25 c 0
 358 25 366 33 366 50 c 0
EndSplineSet
Validated: 1
EndChar

StartChar: C
Encoding: 67 67 23
Width: 614
Flags: HW
LayerCount: 2
Back
Fore
SplineSet
308 681 m 0
 350 681 389 673 426 657 c 0
 467 640 497 616 516 585 c 1
 535 616 554 647 573 676 c 1
 657 654 l 1
 346 316 l 1
 339 320 l 1
 389 395 414 433 415 434 c 0
 421 445 424 457 424 469 c 0
 424 503 408 534 377 534 c 0
 332 533 295 514 266 478 c 128
 237 442 222 401 222 353 c 0
 222 325 228 298 239 272 c 2
 426 -182 l 1
 68 216 l 1
 37 269 22 327 22 388 c 0
 22 463 45 527 90 580 c 0
 139 637 209 681 308 681 c 0
64 445 m 0
 64 428 72 420 89 420 c 0
 105 420 113 428 113 445 c 0
 113 461 105 469 89 469 c 0
 72 469 64 461 64 445 c 0
117 498 m 0
 117 481 125 473 142 473 c 0
 158 473 166 481 166 498 c 0
 166 514 158 522 142 522 c 0
 125 522 117 514 117 498 c 0
166 547 m 0
 166 530 174 522 191 522 c 0
 207 522 215 530 215 547 c 0
 215 563 207 571 191 571 c 0
 174 571 166 563 166 547 c 0
219 599 m 0
 219 583 227 575 243 575 c 0
 260 575 268 583 268 599 c 0
 268 616 260 624 243 624 c 0
 227 624 219 616 219 599 c 0
EndSplineSet
Validated: 1
EndChar

StartChar: D
Encoding: 68 68 24
Width: 781
Flags: HW
LayerCount: 2
Back
Fore
SplineSet
764 351 m 4
 764 289 749 232 719 179 c 5
 361 -219 l 5
 548 234 l 6
 559 261 564 288 564 316 c 4
 564 364 549 406 520 441 c 132
 491 476 454 495 409 497 c 4
 400 497 391 494 383 487 c 5
 383 203 l 5
 435 149 l 5
 372 -1 l 5
 136 -1 l 5
 135 6 l 5
 158 9 188 15 226 23 c 4
 236 26 245 33 253 46 c 5
 253 465 l 6
 252 506 230 527 189 527 c 4
 167 527 136 521 97 509 c 4
 65 498 33 488 0 478 c 5
 -19 482 l 5
 567 756 l 5
 571 750 l 5
 538 730 493 702 437 666 c 4
 434 664 426 654 413 637 c 5
 435 642 456 644 477 644 c 4
 575 644 647 600 696 542 c 4
 741 490 764 426 764 351 c 4
366 268 m 4
 366 285 358 293 341 293 c 4
 325 293 317 285 317 268 c 4
 317 252 325 244 341 244 c 4
 358 244 366 252 366 268 c 4
366 194 m 4
 366 210 358 218 341 218 c 4
 325 218 317 210 317 194 c 4
 317 177 325 169 341 169 c 4
 358 169 366 177 366 194 c 4
366 124 m 4
 366 141 358 149 341 149 c 4
 325 149 317 141 317 124 c 4
 317 108 325 100 341 100 c 4
 358 100 366 108 366 124 c 4
366 50 m 4
 366 66 358 74 341 74 c 4
 325 74 317 66 317 50 c 4
 317 33 325 25 341 25 c 4
 358 25 366 33 366 50 c 4
EndSplineSet
Validated: 1
EndChar

StartChar: E
Encoding: 69 69 25
Width: 845
Flags: HW
LayerCount: 2
Back
Fore
SplineSet
419 203 m 5
 471 139 l 5
 408 -1 l 5
 173 -1 l 5
 171 6 l 5
 194 9 224 15 262 23 c 4
 272 26 281 33 289 46 c 5
 289 465 l 6
 288 506 267 527 225 527 c 4
 203 527 172 521 133 509 c 4
 101 498 36 478 36 478 c 5
 18 482 l 5
 604 756 l 5
 607 750 l 5
 607 750 529 702 473 666 c 4
 462 657 450 643 437 622 c 5
 707 622 l 5
 765 483 l 5
 419 483 l 5
 419 352 l 5
 445 352 l 5
 445 284 l 5
 419 284 l 5
 419 203 l 5
654 309 m 6
 654 292 646 284 629 284 c 6
 603 284 l 6
 586 284 578 292 578 309 c 6
 578 327 l 6
 578 344 586 352 603 352 c 6
 629 352 l 6
 646 352 654 344 654 327 c 6
 654 309 l 6
563 309 m 6
 563 292 555 284 538 284 c 6
 486 284 l 6
 469 284 461 292 461 309 c 6
 461 327 l 6
 461 344 469 352 486 352 c 6
 538 352 l 6
 555 352 563 344 563 327 c 6
 563 309 l 6
833 286 m 5
 665 -142 l 5
 609 -76 l 5
 657 -1 l 5
 455 -1 l 5
 513 139 l 5
 659 139 l 6
 674 139 687 140 699 143 c 4
 728 148 747 158 757 173 c 4
 758 174 826 291 826 291 c 5
 833 286 l 5
402 268 m 4
 402 285 394 293 378 293 c 4
 361 293 353 285 353 268 c 4
 353 252 361 244 378 244 c 4
 394 244 402 252 402 268 c 4
402 194 m 4
 402 210 394 218 378 218 c 4
 361 218 353 210 353 194 c 4
 353 177 361 169 378 169 c 4
 394 169 402 177 402 194 c 4
402 124 m 4
 402 141 394 149 378 149 c 4
 361 149 353 141 353 124 c 4
 353 108 361 100 378 100 c 4
 394 100 402 108 402 124 c 4
402 50 m 4
 402 66 394 74 378 74 c 4
 361 74 353 66 353 50 c 4
 353 33 361 25 378 25 c 4
 394 25 402 33 402 50 c 4
700 577 m 4
 700 594 692 602 676 602 c 4
 659 602 651 594 651 577 c 4
 651 561 659 553 676 553 c 4
 692 553 700 561 700 577 c 4
EndSplineSet
Validated: 1
EndChar

StartChar: F
Encoding: 70 70 26
Width: 702
Flags: HW
LayerCount: 2
Back
Fore
SplineSet
355 203 m 1
 407 139 l 1
 344 -1 l 1
 108 -1 l 1
 107 6 l 1
 130 9 160 15 198 23 c 0
 208 26 217 33 225 46 c 1
 225 465 l 2
 224 506 202 527 161 527 c 0
 139 527 108 521 69 509 c 0
 37 498 -28 478 -28 478 c 1
 -47 482 l 1
 539 756 l 1
 543 750 l 1
 543 750 465 702 409 666 c 0
 397 657 385 643 373 622 c 1
 643 622 l 1
 701 483 l 1
 355 483 l 1
 355 352 l 1
 381 352 l 1
 381 284 l 1
 355 284 l 1
 355 203 l 1
590 309 m 2
 590 292 582 284 565 284 c 2
 539 284 l 2
 522 284 514 292 514 309 c 2
 514 327 l 2
 514 344 522 352 539 352 c 2
 565 352 l 2
 582 352 590 344 590 327 c 2
 590 309 l 2
499 309 m 2
 499 292 491 284 474 284 c 2
 422 284 l 2
 405 284 397 292 397 309 c 2
 397 327 l 2
 397 344 405 352 422 352 c 2
 474 352 l 2
 491 352 499 344 499 327 c 2
 499 309 l 2
338 388 m 0
 338 405 330 413 313 413 c 0
 297 413 289 405 289 388 c 0
 289 372 297 364 313 364 c 0
 330 364 338 372 338 388 c 0
338 314 m 0
 338 330 330 338 313 338 c 0
 297 338 289 330 289 314 c 0
 289 297 297 289 313 289 c 0
 330 289 338 297 338 314 c 0
338 244 m 0
 338 261 330 269 313 269 c 0
 297 269 289 261 289 244 c 0
 289 228 297 220 313 220 c 0
 330 220 338 228 338 244 c 0
338 170 m 0
 338 186 330 194 313 194 c 0
 297 194 289 186 289 170 c 0
 289 153 297 145 313 145 c 0
 330 145 338 153 338 170 c 0
636 577 m 0
 636 594 628 602 612 602 c 0
 595 602 587 594 587 577 c 0
 587 561 595 553 612 553 c 0
 628 553 636 561 636 577 c 0
EndSplineSet
Validated: 1
EndChar

StartChar: G
Encoding: 71 71 27
Width: 692
Flags: HW
LayerCount: 2
Back
Fore
SplineSet
688 260 m 5
 653 254 615 234 573 200 c 4
 572 199 571 197 571 194 c 4
 571 191 575 183 582 171 c 132
 589 159 592 150 592 143 c 4
 592 134 587 127 576 122 c 6
 343 21 l 5
 426 -182 l 5
 68 216 l 5
 37 269 22 327 22 388 c 4
 22 463 45 527 90 580 c 4
 131 627 184 659 249 675 c 4
 267 679 287 681 308 681 c 4
 350 681 389 673 426 657 c 4
 467 640 497 616 516 585 c 5
 573 676 l 5
 657 654 l 5
 346 316 l 5
 339 320 l 5
 339 320 384 385 415 434 c 4
 421 445 424 457 424 469 c 4
 424 507 403 533 377 534 c 4
 332 533 295 514 266 478 c 132
 237 442 222 401 222 353 c 4
 222 325 228 298 239 272 c 6
 323 68 l 5
 452 142 l 6
 468 151 476 160 476 169 c 4
 476 186 453 203 406 221 c 4
 369 235 326 246 278 255 c 5
 262 268 l 5
 685 267 l 5
 688 260 l 5
268 599 m 4
 268 616 260 624 243 624 c 4
 227 624 219 616 219 599 c 4
 219 583 227 575 243 575 c 4
 260 575 268 583 268 599 c 4
191 571 m 4
 174 571 166 563 166 547 c 4
 166 530 174 522 191 522 c 4
 207 522 215 530 215 547 c 4
 215 563 207 571 191 571 c 4
166 498 m 4
 166 514 158 522 142 522 c 4
 125 522 117 514 117 498 c 4
 117 481 125 473 142 473 c 4
 158 473 166 481 166 498 c 4
89 469 m 4
 72 469 64 461 64 445 c 4
 64 428 72 420 89 420 c 4
 105 420 113 428 113 445 c 4
 113 461 105 469 89 469 c 4
EndSplineSet
Validated: 1
EndChar

StartChar: H
Encoding: 72 72 28
Width: 826
Flags: HW
LayerCount: 2
Back
Fore
SplineSet
844 6 m 1
 843 0 l 1
 716 0 l 1
 410 -142 l 1
 406 -136 l 1
 439 -116 484 -88 540 -53 c 0
 557 -40 569 -25 578 -6 c 0
 588 17 593 41 593 67 c 2
 593 236 l 1
 549 236 l 2
 532 236 524 244 524 261 c 2
 524 279 l 2
 524 296 532 303 549 303 c 2
 593 303 l 1
 593 410 l 1
 542 465 l 1
 605 614 l 1
 841 614 l 1
 842 608 l 1
 819 605 789 599 751 591 c 0
 744 588 735 580 724 567 c 1
 725 47 l 1
 732 34 742 26 753 23 c 0
 754 23 784 17 844 6 c 1
509 261 m 2
 509 244 501 236 484 236 c 2
 458 236 l 2
 441 236 433 244 433 261 c 2
 433 279 l 2
 433 295 441 303 458 303 c 2
 484 303 l 2
 501 303 509 295 509 279 c 2
 509 261 l 2
571 750 m 1
 571 750 493 702 437 666 c 0
 420 654 408 638 399 619 c 0
 388 595 383 571 383 547 c 2
 383 303 l 1
 394 303 l 2
 411 303 419 295 419 279 c 2
 419 261 l 2
 419 244 411 236 394 236 c 2
 383 236 l 1
 383 203 l 1
 435 149 l 1
 372 -1 l 1
 136 -1 l 1
 135 6 l 1
 158 9 188 15 226 23 c 0
 236 26 245 33 253 46 c 1
 253 465 l 2
 252 506 230 527 189 527 c 0
 167 527 136 521 97 509 c 0
 65 498 0 478 0 478 c 1
 -19 482 l 1
 567 756 l 1
 571 750 l 1
660 564 m 0
 660 581 652 589 636 589 c 0
 619 589 611 581 611 564 c 0
 611 548 619 540 636 540 c 0
 652 540 660 548 660 564 c 0
660 490 m 0
 660 506 652 514 636 514 c 0
 619 514 611 506 611 490 c 0
 611 473 619 465 636 465 c 0
 652 465 660 473 660 490 c 0
660 420 m 0
 660 437 652 445 636 445 c 0
 619 445 611 437 611 420 c 0
 611 404 619 396 636 396 c 0
 652 396 660 404 660 420 c 0
660 346 m 0
 660 362 652 370 636 370 c 0
 619 370 611 362 611 346 c 0
 611 329 619 321 636 321 c 0
 652 321 660 329 660 346 c 0
366 268 m 0
 366 285 358 293 341 293 c 0
 325 293 317 285 317 268 c 0
 317 252 325 244 341 244 c 0
 358 244 366 252 366 268 c 0
366 194 m 0
 366 210 358 218 341 218 c 0
 325 218 317 210 317 194 c 0
 317 177 325 169 341 169 c 0
 358 169 366 177 366 194 c 0
366 124 m 0
 366 141 358 149 341 149 c 0
 325 149 317 141 317 124 c 0
 317 108 325 100 341 100 c 0
 358 100 366 108 366 124 c 0
366 50 m 0
 366 66 358 74 341 74 c 0
 325 74 317 66 317 50 c 0
 317 33 325 25 341 25 c 0
 358 25 366 33 366 50 c 0
EndSplineSet
Validated: 1
EndChar

StartChar: I
Encoding: 73 73 29
Width: 481
Flags: HW
LayerCount: 2
Back
Fore
SplineSet
500 594 m 1
 496 591 475 575 437 547 c 0
 420 534 408 519 399 500 c 0
 388 476 383 452 383 428 c 2
 383 203 l 1
 435 149 l 1
 372 -1 l 1
 136 -1 l 1
 135 6 l 1
 135 6 188 15 226 23 c 0
 236 26 245 33 253 46 c 1
 253 346 l 2
 252 391 235 414 203 414 c 0
 190 414 174 410 153 403 c 0
 138 397 122 391 107 386 c 1
 89 391 l 1
 331 514 l 1
 308 535 297 555 297 577 c 0
 297 579 297 582 297 584 c 1
 269 576 246 547 229 497 c 1
 224 513 222 528 222 541 c 0
 222 568 231 589 248 606 c 1
 232 611 218 613 206 613 c 0
 189 613 167 606 138 593 c 1
 158 628 188 649 228 656 c 1
 215 684 203 702 192 710 c 128
 181 718 164 723 142 725 c 1
 160 734 175 738 187 738 c 0
 204 738 225 727 250 706 c 1
 257 727 260 743 260 756 c 0
 260 776 252 796 237 815 c 1
 278 795 301 782 301 730 c 0
 301 728 301 727 301 725 c 1
 322 738 338 751 346 762 c 128
 354 773 362 790 369 812 c 1
 374 798 377 784 377 769 c 0
 377 743 368 721 350 703 c 1
 361 696 374 692 389 692 c 0
 412 692 435 700 459 716 c 1
 438 674 409 653 371 653 c 0
 370 653 370 653 369 653 c 1
 380 625 409 602 456 585 c 1
 436 580 420 578 407 578 c 0
 380 578 360 586 347 603 c 1
 342 594 340 583 340 571 c 0
 340 558 343 542 349 524 c 1
 496 599 l 1
 500 594 l 1
366 307 m 0
 366 324 358 332 341 332 c 0
 325 332 317 324 317 307 c 0
 317 291 325 283 341 283 c 0
 358 283 366 291 366 307 c 0
366 233 m 0
 366 249 358 257 341 257 c 0
 325 257 317 249 317 233 c 0
 317 216 325 208 341 208 c 0
 358 208 366 216 366 233 c 0
366 163 m 0
 366 180 358 188 341 188 c 0
 325 188 317 180 317 163 c 0
 317 147 325 139 341 139 c 0
 358 139 366 147 366 163 c 0
366 89 m 0
 366 105 358 113 341 113 c 0
 325 113 317 105 317 89 c 0
 317 72 325 64 341 64 c 0
 358 64 366 72 366 89 c 0
EndSplineSet
Validated: 1
EndChar

StartChar: J
Encoding: 74 74 30
Width: 473
Flags: HW
LayerCount: 2
Back
Fore
SplineSet
89 391 m 1
 331 514 l 1
 308 535 297 555 297 577 c 0
 297 579 297 582 297 584 c 1
 278 579 262 566 250 546 c 0
 244 536 237 520 229 497 c 1
 225 513 223 528 223 541 c 0
 223 568 231 589 248 606 c 1
 232 611 218 613 207 613 c 0
 190 613 167 606 138 593 c 1
 158 628 188 649 229 656 c 1
 215 684 203 702 192 710 c 128
 181 718 164 723 142 725 c 1
 160 734 175 738 187 738 c 0
 204 738 225 727 250 706 c 1
 257 727 260 743 260 756 c 0
 260 776 252 796 237 815 c 1
 278 795 301 782 301 730 c 0
 301 728 301 727 301 725 c 1
 322 738 338 751 347 763 c 0
 354 774 362 790 369 812 c 1
 374 798 377 784 377 769 c 0
 377 743 368 721 350 703 c 1
 362 696 375 692 390 692 c 0
 412 692 435 700 460 716 c 1
 438 674 409 653 372 653 c 0
 371 653 371 653 370 653 c 1
 377 634 390 618 411 605 c 0
 420 599 435 592 456 585 c 1
 437 580 421 578 408 578 c 0
 381 578 361 586 348 603 c 1
 343 594 340 583 340 571 c 0
 340 557 343 541 349 524 c 1
 497 599 l 1
 501 594 l 1
 501 594 446 553 437 547 c 0
 420 534 408 519 399 500 c 0
 388 476 383 452 383 428 c 0
 383 203 383 203 383 203 c 1
 435 149 l 1
 241 -107 l 2
 234 -117 211 -141 211 -154 c 0
 211 -161 220 -166 226 -170 c 1
 125 -205 48 -243 -4 -285 c 1
 -17 -286 l 1
 206 -48 l 2
 237 -13 253 18 253 46 c 2
 253 346 l 2
 252 391 235 414 203 414 c 0
 190 414 174 410 153 403 c 0
 138 397 122 391 107 386 c 1
 89 391 l 1
366 447 m 0
 366 464 358 472 342 472 c 0
 325 472 317 464 317 447 c 0
 317 431 325 423 342 423 c 0
 358 423 366 431 366 447 c 0
366 373 m 0
 366 389 358 397 342 397 c 0
 325 397 317 389 317 373 c 0
 317 356 325 348 342 348 c 0
 358 348 366 356 366 373 c 0
366 303 m 0
 366 320 358 328 342 328 c 0
 325 328 317 320 317 303 c 0
 317 287 325 279 342 279 c 0
 358 279 366 287 366 303 c 0
366 229 m 0
 366 245 358 253 342 253 c 0
 325 253 317 245 317 229 c 0
 317 212 325 204 342 204 c 0
 358 204 366 212 366 229 c 0
EndSplineSet
Validated: 1
EndChar

StartChar: K
Encoding: 75 75 31
Width: 774
Flags: HW
LayerCount: 2
Back
Fore
SplineSet
792 586 m 1
 558 327 l 1
 571 332 583 334 595 334 c 0
 635 334 668 320 696 292 c 128
 724 264 738 230 738 190 c 0
 738 159 729 131 710 105 c 1
 484 -94 l 1
 602 132 l 2
 607 142 609 152 609 163 c 0
 609 186 600 205 580 222 c 128
 560 239 537 248 511 248 c 0
 475 248 446 230 424 194 c 1
 431 225 452 255 486 284 c 1
 450 284 l 2
 433 284 425 292 425 309 c 2
 425 328 l 2
 425 345 433 353 450 353 c 2
 469 353 l 1
 438 399 l 1
 608 586 l 1
 792 586 l 1
571 750 m 1
 571 750 493 703 437 667 c 0
 420 654 408 639 399 620 c 0
 388 596 383 572 383 548 c 2
 383 353 l 1
 409 353 l 1
 409 284 l 1
 383 284 l 1
 383 204 l 1
 435 149 l 1
 372 0 l 1
 136 0 l 1
 135 6 l 1
 135 6 188 15 226 23 c 0
 236 26 245 34 253 47 c 1
 253 466 l 2
 252 507 230 528 189 528 c 0
 167 528 136 522 97 510 c 0
 65 499 33 489 0 478 c 1
 -19 483 l 1
 567 756 l 1
 571 750 l 1
366 269 m 0
 366 285 358 293 341 293 c 0
 325 293 317 285 317 269 c 0
 317 252 325 244 341 244 c 0
 358 244 366 252 366 269 c 0
366 194 m 0
 366 211 358 219 341 219 c 0
 325 219 317 211 317 194 c 0
 317 178 325 170 341 170 c 0
 358 170 366 178 366 194 c 0
366 125 m 0
 366 141 358 149 341 149 c 0
 325 149 317 141 317 125 c 0
 317 108 325 100 341 100 c 0
 358 100 366 108 366 125 c 0
366 50 m 0
 366 67 358 75 341 75 c 0
 325 75 317 67 317 50 c 0
 317 34 325 26 341 26 c 0
 358 26 366 34 366 50 c 0
EndSplineSet
Validated: 1
EndChar

StartChar: L
Encoding: 76 76 32
Width: 801
Flags: HW
LayerCount: 2
Back
Fore
SplineSet
796 286 m 1
 629 -142 l 1
 573 -76 l 1
 620 -1 l 1
 419 -1 l 1
 477 138 l 1
 623 138 l 2
 638 139 651 140 663 142 c 0
 692 148 711 158 721 173 c 2
 790 291 l 1
 796 286 l 1
571 750 m 1
 571 750 493 702 437 666 c 0
 420 654 408 638 399 619 c 0
 388 595 383 571 383 547 c 2
 383 203 l 1
 435 149 l 1
 372 -1 l 1
 136 -1 l 1
 135 6 l 1
 158 9 188 15 226 23 c 0
 236 26 245 33 253 46 c 1
 253 465 l 2
 252 506 230 527 189 527 c 0
 167 527 136 521 97 509 c 0
 65 498 0 478 0 478 c 1
 -19 482 l 1
 567 756 l 1
 571 750 l 1
366 378 m 0
 366 395 358 403 341 403 c 0
 325 403 317 395 317 378 c 0
 317 362 325 354 341 354 c 0
 358 354 366 362 366 378 c 0
366 304 m 0
 366 320 358 328 341 328 c 0
 325 328 317 320 317 304 c 0
 317 287 325 279 341 279 c 0
 358 279 366 287 366 304 c 0
366 234 m 0
 366 251 358 259 341 259 c 0
 325 259 317 251 317 234 c 0
 317 218 325 210 341 210 c 0
 358 210 366 218 366 234 c 0
366 160 m 0
 366 176 358 184 341 184 c 0
 325 184 317 176 317 160 c 0
 317 143 325 135 341 135 c 0
 358 135 366 143 366 160 c 0
EndSplineSet
Validated: 1
EndChar

StartChar: M
Encoding: 77 77 33
Width: 925
Flags: HW
LayerCount: 2
Back
Fore
SplineSet
991 8 m 1
 990 0 l 1
 748 0 l 1
 602 471 l 2
 589 514 560 535 515 535 c 0
 492 535 460 529 421 516 c 1
 467 372 l 1
 528 516 l 1
 530 516 531 516 533 516 c 0
 566 516 588 472 593 442 c 1
 551 466 l 1
 486 315 l 1
 529 188 l 1
 418 36 l 1
 420 51 420 65 420 78 c 0
 420 103 418 124 412 144 c 1
 412 144 378 252 310 469 c 0
 297 512 268 534 224 534 c 0
 202 534 173 528 138 517 c 0
 109 508 81 498 52 488 c 1
 32 494 l 1
 541 754 l 1
 547 748 l 1
 547 748 482 702 437 667 c 0
 413 646 408 616 408 572 c 0
 408 565 409 557 409 549 c 1
 412 541 l 1
 833 755 l 1
 839 749 l 1
 839 749 774 703 729 668 c 0
 705 647 700 617 700 573 c 0
 700 566 701 558 701 550 c 1
 855 86 l 2
 867 51 882 30 900 25 c 0
 901 24 931 19 991 8 c 1
301 441 m 1
 260 465 l 1
 143 194 l 1
 166 128 l 1
 146 83 l 1
 148 75 153 63 161 47 c 0
 168 34 178 26 190 23 c 0
 191 23 221 17 281 6 c 1
 280 0 l 1
 15 0 l 1
 236 515 l 1
 237 515 239 515 240 515 c 0
 273 515 296 471 301 441 c 1
682 623 m 0
 682 639 674 647 658 647 c 0
 641 647 633 639 633 623 c 0
 633 606 641 598 658 598 c 0
 674 598 682 606 682 623 c 0
749 356 m 0
 744 372 734 378 719 373 c 0
 703 368 697 358 702 342 c 0
 707 327 717 321 733 326 c 0
 748 331 754 341 749 356 c 0
771 285 m 0
 766 301 756 306 740 301 c 0
 725 296 719 286 724 271 c 0
 729 255 739 250 755 255 c 0
 770 260 776 270 771 285 c 0
399 628 m 0
 399 644 391 652 375 652 c 0
 358 652 350 644 350 628 c 0
 350 611 358 603 375 603 c 0
 391 603 399 611 399 628 c 0
791 219 m 0
 786 234 776 240 761 235 c 0
 745 230 739 220 744 204 c 0
 749 189 760 183 775 188 c 256
 790 193 796 203 791 219 c 0
813 148 m 0
 808 163 798 169 782 164 c 0
 767 159 761 149 766 133 c 0
 771 118 781 112 797 117 c 0
 812 122 818 132 813 148 c 0
140 132 m 0
 140 149 132 157 115 157 c 0
 99 157 91 149 91 132 c 0
 91 116 99 108 115 108 c 0
 132 108 140 116 140 132 c 0
110 55 m 0
 110 71 102 79 86 79 c 0
 69 79 61 71 61 55 c 0
 61 38 69 30 86 30 c 0
 102 30 110 38 110 55 c 0
EndSplineSet
Validated: 33
EndChar

StartChar: N
Encoding: 78 78 34
Width: 868
Flags: HW
LayerCount: 2
Back
Fore
SplineSet
930 752 m 1
 930 752 851 704 796 669 c 0
 779 656 767 640 758 621 c 0
 748 599 743 575 743 549 c 2
 743 206 l 1
 794 151 l 1
 731 0 l 1
 495 0 l 1
 494 8 l 1
 494 8 547 17 585 25 c 0
 595 28 604 36 612 49 c 1
 612 569 l 1
 604 581 594 589 583 593 c 0
 582 593 492 610 492 610 c 1
 493 616 l 1
 620 616 l 1
 926 758 l 1
 930 752 l 1
611 748 m 1
 582 729 545 702 500 667 c 0
 487 655 479 640 476 621 c 0
 474 608 473 584 473 549 c 1
 592 188 l 1
 494 52 l 1
 494 159 l 1
 392 470 l 2
 389 479 382 489 370 498 c 0
 361 504 352 510 343 517 c 1
 343 46 l 1
 351 34 361 26 372 23 c 0
 373 23 463 6 463 6 c 1
 462 0 l 1
 335 0 l 1
 29 -142 l 1
 25 -136 l 1
 25 -136 104 -89 159 -53 c 0
 176 -40 188 -25 197 -6 c 0
 207 16 212 40 212 66 c 2
 212 410 l 1
 161 465 l 1
 180 510 l 1
 165 505 144 497 115 488 c 1
 95 494 l 1
 605 754 l 1
 611 748 l 1
718 494 m 0
 718 511 710 519 693 519 c 0
 677 519 669 511 669 494 c 0
 669 478 677 470 693 470 c 0
 710 470 718 478 718 494 c 0
718 420 m 0
 718 436 710 444 693 444 c 0
 677 444 669 436 669 420 c 0
 669 403 677 395 693 395 c 0
 710 395 718 403 718 420 c 0
463 628 m 0
 463 644 455 652 438 652 c 0
 422 652 414 644 414 628 c 0
 414 611 422 603 438 603 c 0
 455 603 463 611 463 628 c 0
718 350 m 0
 718 367 710 375 693 375 c 0
 677 375 669 367 669 350 c 0
 669 334 677 326 693 326 c 0
 710 326 718 334 718 350 c 0
718 276 m 0
 718 292 710 300 693 300 c 0
 677 300 669 292 669 276 c 0
 669 259 677 251 693 251 c 0
 710 251 718 259 718 276 c 0
317 289 m 0
 317 305 309 313 292 313 c 0
 276 313 268 305 268 289 c 0
 268 272 276 264 292 264 c 0
 309 264 317 272 317 289 c 0
317 214 m 0
 317 231 309 239 292 239 c 0
 276 239 268 231 268 214 c 0
 268 198 276 190 292 190 c 0
 309 190 317 198 317 214 c 0
317 145 m 0
 317 161 309 169 292 169 c 0
 276 169 268 161 268 145 c 0
 268 128 276 120 292 120 c 0
 309 120 317 128 317 145 c 0
317 70 m 0
 317 87 309 95 292 95 c 0
 276 95 268 87 268 70 c 0
 268 54 276 46 292 46 c 0
 309 46 317 54 317 70 c 0
EndSplineSet
Validated: 1
EndChar

StartChar: O
Encoding: 79 79 35
Width: 765
Flags: HW
LayerCount: 2
Back
Fore
SplineSet
736 331 m 256
 736 237 703 156 636 90 c 128
 569 24 489 -9 395 -9 c 256
 301 -9 220 24 154 90 c 128
 88 156 55 237 55 331 c 256
 55 425 88 506 154 572 c 128
 220 638 301 671 395 671 c 256
 489 671 569 638 636 572 c 128
 703 506 736 425 736 331 c 256
604 332 m 0
 604 415 584 487 542 548 c 128
 500 609 451 640 396 640 c 0
 341 640 296 610 259 550 c 128
 222 490 204 417 204 332 c 0
 204 248 222 177 259 120 c 128
 296 63 341 35 396 35 c 0
 452 35 501 64 542 122 c 128
 583 180 604 249 604 332 c 0
570 439 m 0
 570 423 562 415 546 415 c 0
 529 415 521 423 521 439 c 0
 521 456 529 464 546 464 c 0
 562 464 570 456 570 439 c 0
570 365 m 0
 570 348 562 340 546 340 c 0
 529 340 521 348 521 365 c 0
 521 381 529 389 546 389 c 0
 562 389 570 381 570 365 c 0
570 295 m 0
 570 279 562 271 546 271 c 0
 529 271 521 279 521 295 c 0
 521 312 529 320 546 320 c 0
 562 320 570 312 570 295 c 0
570 221 m 0
 570 204 562 196 546 196 c 0
 529 196 521 204 521 221 c 0
 521 237 529 245 546 245 c 0
 562 245 570 237 570 221 c 0
EndSplineSet
Validated: 1
EndChar

StartChar: P
Encoding: 80 80 36
Width: 707
Flags: HW
LayerCount: 2
Back
Fore
SplineSet
542 641 m 0
 581 641 615 627 643 599 c 128
 671 571 685 537 685 497 c 0
 685 466 675 438 656 412 c 1
 430 213 l 1
 548 439 l 2
 553 449 556 459 556 470 c 0
 556 492 546 512 526 529 c 128
 506 546 483 555 457 555 c 0
 428 555 404 543 383 520 c 1
 383 203 l 1
 435 149 l 1
 372 -1 l 1
 136 -1 l 1
 135 6 l 1
 226 23 l 2
 236 26 245 33 253 46 c 1
 253 465 l 2
 252 506 230 527 189 527 c 0
 167 527 136 521 97 509 c 0
 65 499 0 478 0 478 c 1
 -19 482 l 1
 567 756 l 1
 571 750 l 1
 571 750 493 702 437 666 c 0
 420 654 408 638 399 619 c 0
 388 595 383 571 383 547 c 2
 383 534 l 17
 400 561 423 586 454 608 c 128
 485 630 515 641 542 641 c 0
366 268 m 0
 366 285 358 293 341 293 c 0
 325 293 317 285 317 268 c 0
 317 252 325 244 341 244 c 0
 358 244 366 252 366 268 c 0
366 194 m 0
 366 210 358 218 341 218 c 0
 325 218 317 210 317 194 c 0
 317 177 325 169 341 169 c 0
 358 169 366 177 366 194 c 0
366 124 m 0
 366 141 358 149 341 149 c 0
 325 149 317 141 317 124 c 0
 317 108 325 100 341 100 c 0
 358 100 366 108 366 124 c 0
366 50 m 0
 366 66 358 74 341 74 c 0
 325 74 317 66 317 50 c 0
 317 33 325 25 341 25 c 0
 358 25 366 33 366 50 c 0
EndSplineSet
Validated: 1
EndChar

StartChar: Q
Encoding: 81 81 37
Width: 761
Flags: HW
LayerCount: 2
Back
Fore
SplineSet
736 331 m 0
 736 244 707 168 648 103 c 128
 589 38 517 2 431 -7 c 1
 540 -200 l 1
 328 -3 l 1
 249 13 184 52 132 114 c 128
 80 176 55 249 55 331 c 0
 55 425 88 506 154 572 c 128
 220 638 301 671 395 671 c 256
 489 671 569 638 636 572 c 128
 703 506 736 425 736 331 c 0
604 332 m 0
 604 415 584 487 542 548 c 128
 500 609 451 640 396 640 c 0
 341 640 296 610 259 550 c 128
 222 490 204 417 204 332 c 0
 204 257 219 193 248 138 c 1
 250 176 264 208 292 234 c 128
 320 260 353 274 391 274 c 0
 420 274 453 260 489 232 c 128
 525 204 548 176 558 147 c 1
 589 202 604 263 604 332 c 0
556 144 m 1
 535 173 508 188 475 188 c 0
 449 188 426 179 406 162 c 128
 386 145 376 126 376 104 c 0
 376 93 379 83 385 73 c 2
 406 35 l 1
 467 40 517 76 556 144 c 1
570 439 m 0
 570 423 562 415 546 415 c 0
 529 415 521 423 521 439 c 0
 521 456 529 464 546 464 c 0
 562 464 570 456 570 439 c 0
570 365 m 0
 570 348 562 340 546 340 c 0
 529 340 521 348 521 365 c 0
 521 381 529 389 546 389 c 0
 562 389 570 381 570 365 c 0
570 295 m 0
 570 279 562 271 546 271 c 0
 529 271 521 279 521 295 c 0
 521 312 529 320 546 320 c 0
 562 320 570 312 570 295 c 0
570 221 m 0
 570 204 562 196 546 196 c 0
 529 196 521 204 521 221 c 0
 521 237 529 245 546 245 c 0
 562 245 570 237 570 221 c 0
EndSplineSet
Validated: 1
EndChar

StartChar: R
Encoding: 82 82 38
Width: 786
Flags: HW
LayerCount: 2
Back
Fore
SplineSet
806 0 m 1
 622 0 l 1
 452 186 l 1
 497 220 l 1
 471 248 l 1
 430 213 l 1
 548 439 l 2
 553 449 556 459 556 470 c 0
 556 492 546 512 526 529 c 128
 506 546 483 555 458 555 c 0
 429 555 404 543 383 520 c 1
 383 203 l 1
 435 149 l 1
 372 -1 l 1
 136 -1 l 1
 135 6 l 5
 135 6 188 15 226 23 c 0
 236 26 245 33 253 46 c 1
 253 465 l 2
 252 506 230 527 189 527 c 0
 167 527 136 521 97 509 c 0
 65 498 0 478 0 478 c 1
 -19 482 l 1
 567 756 l 1
 571 750 l 5
 571 750 493 702 437 666 c 0
 420 654 408 638 399 619 c 0
 388 595 383 571 383 547 c 0
 383 539 383 539 383 531 c 1
 399 560 423 586 454 608 c 128
 485 630 515 641 542 641 c 0
 581 641 615 627 643 599 c 128
 671 571 685 537 685 497 c 0
 685 466 675 438 656 412 c 1
 529 301 l 1
 806 0 l 1
366 413 m 0
 366 430 358 438 341 438 c 0
 325 438 317 430 317 413 c 0
 317 397 325 389 341 389 c 0
 358 389 366 397 366 413 c 0
366 339 m 0
 366 355 358 363 341 363 c 0
 325 363 317 355 317 339 c 0
 317 322 325 314 341 314 c 0
 358 314 366 322 366 339 c 0
366 269 m 0
 366 286 358 294 341 294 c 0
 325 294 317 286 317 269 c 0
 317 253 325 245 341 245 c 0
 358 245 366 253 366 269 c 0
366 195 m 0
 366 211 358 219 341 219 c 0
 325 219 317 211 317 195 c 0
 317 178 325 170 341 170 c 0
 358 170 366 178 366 195 c 0
EndSplineSet
Validated: 1
EndChar

StartChar: S
Encoding: 83 83 39
Width: 630
Flags: HW
LayerCount: 2
Back
Fore
SplineSet
121 272 m 1
 64 321 35 382 35 453 c 0
 35 530 69 590 137 633 c 0
 169 654 206 664 249 664 c 0
 288 664 319 654 344 635 c 1
 349 661 355 686 362 711 c 1
 425 716 l 1
 290 407 l 1
 284 408 l 1
 284 408 311 473 311 513 c 0
 311 538 289 568 270 568 c 0
 214 568 187 501 187 452 c 0
 187 414 200 380 226 351 c 2
 404 149 l 1
 414 165 419 184 419 205 c 0
 419 236 410 264 391 288 c 0
 368 317 339 335 298 335 c 0
 283 335 267 332 251 327 c 1
 281 347 322 357 373 357 c 0
 440 357 491 341 526 310 c 0
 567 274 587 230 587 178 c 0
 587 136 573 98 546 64 c 128
 519 30 484 8 440 -1 c 1
 61 -1 l 1
 61 -1 144 26 227 53 c 0
 293 75 345 99 382 126 c 1
 121 272 l 1
557 214 m 0
 557 230 549 238 533 238 c 0
 516 238 508 230 508 214 c 0
 508 197 516 189 533 189 c 0
 549 189 557 197 557 214 c 0
557 139 m 0
 557 156 549 164 533 164 c 0
 516 164 508 156 508 139 c 0
 508 123 516 115 533 115 c 0
 549 115 557 123 557 139 c 0
EndSplineSet
Validated: 1
EndChar

StartChar: T
Encoding: 84 84 40
Width: 817
Flags: HW
LayerCount: 2
Back
Fore
SplineSet
842 445 m 1
 610 445 l 1
 587 450 568 463 551 482 c 128
 534 501 526 524 526 551 c 0
 526 584 538 610 563 631 c 0
 582 648 611 657 649 657 c 0
 682 657 709 650 728 637 c 1
 718 640 708 642 699 642 c 0
 677 642 660 634 646 618 c 128
 632 602 625 585 625 566 c 0
 625 540 636 523 658 515 c 2
 842 445 l 1
685 756 m 1
 689 750 l 1
 655 730 610 702 555 666 c 0
 538 654 526 638 517 619 c 0
 506 596 501 572 501 547 c 2
 501 203 l 1
 553 149 l 1
 490 -1 l 1
 254 -1 l 1
 253 6 l 1
 344 23 l 2
 354 26 363 33 371 46 c 1
 371 445 l 1
 183 445 l 2
 133 445 100 443 84 416 c 2
 16 298 l 1
 9 303 l 1
 176 731 l 1
 232 664 l 1
 223 648 208 622 185 585 c 1
 319 585 l 1
 685 756 l 1
484 283 m 0
 484 300 476 308 460 308 c 0
 443 308 435 300 435 283 c 0
 435 267 443 259 460 259 c 0
 476 259 484 267 484 283 c 0
484 209 m 0
 484 225 476 233 460 233 c 0
 443 233 435 225 435 209 c 0
 435 192 443 184 460 184 c 0
 476 184 484 192 484 209 c 0
484 139 m 0
 484 156 476 164 460 164 c 0
 443 164 435 156 435 139 c 0
 435 123 443 115 460 115 c 0
 476 115 484 123 484 139 c 0
484 65 m 0
 484 81 476 89 460 89 c 0
 443 89 435 81 435 65 c 0
 435 48 443 40 460 40 c 0
 476 40 484 48 484 65 c 0
EndSplineSet
Validated: 1
EndChar

StartChar: U
Encoding: 85 85 41
Width: 723
Flags: HW
LayerCount: 2
Back
Fore
SplineSet
669 171 m 1
 658 119 636 77 601 46 c 0
 559 8 509 -11 451 -11 c 0
 428 -11 405 -8 383 -1 c 1
 172 -1 l 1
 171 6 l 1
 194 9 224 15 262 23 c 0
 272 26 281 33 289 46 c 1
 289 465 l 2
 288 506 266 527 225 527 c 0
 203 527 172 521 133 509 c 2
 36 478 l 1
 17 482 l 1
 603 756 l 1
 607 750 l 1
 473 666 l 2
 456 654 444 638 435 619 c 0
 424 595 419 571 419 547 c 2
 419 174 l 1
 425 168 l 1
 446 169 467 180 486 202 c 0
 503 221 515 243 524 270 c 2
 669 707 l 1
 669 171 l 1
280 63 m 1
 242 105 223 168 223 253 c 0
 223 321 236 375 262 414 c 1
 257 389 254 364 254 339 c 0
 254 292 263 251 280 216 c 1
 280 63 l 1
640 204 m 0
 629 217 618 218 605 207 c 0
 592 197 591 186 602 173 c 0
 612 160 623 159 636 169 c 0
 649 180 650 191 640 204 c 0
582 157 m 0
 571 170 560 171 547 161 c 0
 534 150 533 139 544 126 c 0
 554 113 565 112 578 123 c 0
 591 133 592 144 582 157 c 0
528 113 m 0
 517 126 506 127 493 117 c 0
 480 106 479 95 490 82 c 0
 500 69 511 68 524 79 c 0
 537 89 538 100 528 113 c 0
470 66 m 256
 460 79 449 80 436 70 c 0
 423 60 421 48 432 35 c 0
 442 22 453 21 466 32 c 0
 479 42 480 53 470 66 c 256
EndSplineSet
Validated: 33
EndChar

StartChar: V
Encoding: 86 86 42
Width: 759
Flags: HW
LayerCount: 2
Back
Fore
SplineSet
237 -50 m 2
 242 -48 253 -38 258 -34 c 1
 230 -13 189 39 186 64 c 2
 115 701 l 1
 121 710 l 1
 292 161 l 2
 304 123 324 104 353 104 c 1
 481 413 l 1
 453 467 l 1
 578 617 l 1
 813 617 l 1
 812 610 l 1
 714 593 l 2
 703 591 690 583 677 570 c 1
 462 49 l 1
 465 37 471 29 481 25 c 0
 516 17 565 8 565 8 c 1
 561 2 l 1
 434 2 l 1
 69 -140 l 1
 68 -134 l 1
 237 -50 l 2
237 417 m 256
 233 433 239 443 254 447 c 0
 270 451 280 445 284 430 c 0
 289 414 283 404 267 400 c 0
 251 395 241 401 237 417 c 256
218 489 m 0
 213 505 219 515 235 519 c 256
 251 523 261 517 265 502 c 0
 269 486 263 476 248 472 c 0
 232 467 222 473 218 489 c 0
200 556 m 0
 195 572 201 582 217 586 c 256
 233 590 243 584 247 569 c 0
 251 553 245 543 230 539 c 0
 214 534 204 540 200 556 c 0
180 628 m 0
 176 644 182 654 198 658 c 0
 213 662 223 656 228 641 c 0
 232 625 226 615 210 611 c 0
 195 606 185 612 180 628 c 0
EndSplineSet
Validated: 33
EndChar

StartChar: W
Encoding: 87 87 43
Width: 974
Flags: HW
LayerCount: 2
Back
Fore
SplineSet
182 414 m 0
 178 430 184 440 199 444 c 0
 215 449 225 443 229 427 c 0
 234 411 228 401 212 397 c 256
 196 393 186 399 182 414 c 0
163 486 m 0
 158 502 164 512 180 516 c 0
 196 521 206 515 210 499 c 256
 214 483 208 473 193 469 c 0
 177 465 167 471 163 486 c 0
145 554 m 0
 140 569 146 579 162 584 c 0
 178 588 188 582 192 566 c 0
 196 551 190 541 175 536 c 0
 159 532 149 538 145 554 c 0
125 626 m 0
 121 641 127 651 143 656 c 0
 158 660 168 654 173 638 c 0
 177 623 171 613 155 608 c 0
 140 604 130 610 125 626 c 0
379 0 m 1
 14 -142 l 1
 13 -136 l 1
 13 -136 111 -89 182 -53 c 0
 183 -52 190 -46 203 -36 c 1
 164 -15 140 17 131 62 c 1
 92 634 l 1
 224 124 l 2
 233 86 253 67 284 67 c 1
 426 410 l 1
 398 465 l 1
 523 614 l 1
 758 614 l 1
 757 608 l 1
 733 605 700 599 659 591 c 0
 648 588 635 580 622 567 c 1
 483 225 l 1
 509 124 l 2
 518 86 538 67 569 67 c 1
 711 410 l 1
 683 465 l 1
 808 614 l 1
 1043 614 l 1
 1042 608 l 1
 1018 605 985 599 944 591 c 0
 933 588 920 580 907 567 c 1
 692 46 l 1
 695 34 701 26 711 23 c 0
 712 23 740 17 795 6 c 1
 791 0 l 1
 664 0 l 1
 299 -142 l 1
 298 -136 l 1
 340 -117 430 -83 467 -53 c 2
 488 -36 l 1
 452 0 l 1
 379 0 l 1
656 124 m 0
 650 109 655 98 670 92 c 256
 685 86 696 90 702 105 c 0
 708 120 703 131 688 137 c 0
 673 143 663 139 656 124 c 0
684 193 m 256
 678 178 683 167 698 161 c 256
 713 155 724 160 730 175 c 0
 736 190 731 200 716 206 c 0
 701 213 690 208 684 193 c 256
710 257 m 0
 704 242 709 232 724 225 c 0
 739 219 750 224 756 239 c 256
 762 254 757 265 742 271 c 0
 727 277 717 272 710 257 c 0
738 326 m 0
 732 311 737 301 752 294 c 0
 767 288 778 293 784 308 c 256
 790 323 785 334 770 340 c 256
 755 346 744 341 738 326 c 0
EndSplineSet
Validated: 33
EndChar

StartChar: X
Encoding: 88 88 44
Width: 764
Flags: HW
LayerCount: 2
Back
Fore
SplineSet
679 567 m 1
 594 361 l 1
 627 361 661 346 698 315 c 128
 735 284 758 253 766 221 c 1
 745 257 715 275 678 275 c 0
 653 275 630 267 610 250 c 128
 590 233 579 213 579 192 c 0
 579 181 582 170 588 160 c 2
 786 -162 l 1
 494 119 l 1
 464 46 l 1
 467 34 473 26 483 23 c 0
 518 15 567 6 567 6 c 1
 563 0 l 1
 436 0 l 1
 71 -142 l 1
 70 -136 l 1
 238 -53 l 2
 273 -36 327 35 341 67 c 2
 400 210 l 1
 377 229 l 1
 309 229 l 1
 75 487 l 1
 258 487 l 1
 434 291 l 1
 482 410 l 1
 454 465 l 1
 579 614 l 1
 815 614 l 1
 814 608 l 1
 749 597 717 591 716 591 c 0
 705 588 692 580 679 567 c 1
219 406 m 0
 207 395 206 383 217 371 c 256
 228 359 239 358 252 369 c 0
 264 380 264 392 253 404 c 0
 242 416 231 417 219 406 c 0
265 354 m 0
 253 343 253 332 264 319 c 0
 275 307 286 307 298 318 c 0
 310 329 311 340 300 352 c 256
 289 364 278 365 265 354 c 0
315 299 m 0
 303 288 302 276 313 264 c 0
 324 252 336 251 348 262 c 0
 360 273 361 285 350 297 c 0
 339 309 327 310 315 299 c 0
EndSplineSet
Validated: 33
EndChar

StartChar: Y
Encoding: 89 89 45
Width: 760
Flags: HW
LayerCount: 2
Back
Fore
SplineSet
263 549 m 2
 263 530 246 514 228 514 c 2
 98 514 l 2
 80 514 63 530 63 549 c 2
 63 565 l 2
 63 583 80 600 98 600 c 2
 228 600 l 2
 246 600 263 583 263 565 c 2
 263 549 l 2
815 614 m 1
 814 608 l 1
 789 605 757 599 716 591 c 0
 705 588 692 580 679 567 c 1
 464 46 l 1
 467 34 473 26 483 23 c 0
 484 23 512 17 567 6 c 1
 563 0 l 1
 436 0 l 1
 71 -142 l 1
 70 -136 l 1
 112 -117 168 -89 238 -53 c 0
 249 -46 266 -32 288 -11 c 0
 318 19 336 45 341 67 c 1
 398 204 l 1
 377 229 l 1
 309 229 l 1
 75 487 l 1
 258 487 l 1
 433 292 l 1
 483 410 l 1
 454 465 l 1
 579 614 l 1
 815 614 l 1
204 452 m 0
 193 464 181 465 169 454 c 0
 157 443 156 431 167 419 c 0
 178 407 190 406 202 417 c 0
 214 428 215 440 204 452 c 0
250 400 m 0
 239 412 228 413 216 402 c 0
 203 391 203 380 214 367 c 0
 225 355 236 354 248 365 c 0
 261 376 261 388 250 400 c 0
300 345 m 256
 289 357 278 358 265 347 c 0
 253 336 253 324 264 312 c 0
 275 300 286 299 298 310 c 0
 310 321 311 333 300 345 c 256
EndSplineSet
Validated: 33
EndChar

StartChar: Z
Encoding: 90 90 46
Width: 617
Flags: HW
LayerCount: 2
Back
Fore
SplineSet
512 58 m 0
 512 82 532 102 556 102 c 0
 580 102 600 82 600 58 c 0
 600 34 580 14 556 14 c 0
 532 14 512 34 512 58 c 0
465 255 m 2
 247 127 l 1
 253 122 260 119 268 116 c 2
 569 -1 l 1
 190 -1 l 1
 149 8 116 26 91 55 c 0
 60 89 44 129 44 176 c 0
 44 229 64 274 104 310 c 0
 138 341 189 356 256 356 c 0
 308 356 349 346 379 326 c 1
 363 331 347 334 332 334 c 0
 292 334 259 315 238 287 c 128
 220 263 211 236 211 207 c 0
 211 185 216 166 227 150 c 1
 404 351 l 2
 426 376 442 400 442 428 c 0
 442 464 425 482 390 482 c 2
 124 482 l 2
 103 482 94 469 94 453 c 0
 94 449 95 444 96 439 c 2
 122 342 l 1
 116 341 l 1
 -19 663 l 1
 44 658 l 1
 62 582 l 1
 77 596 98 619 119 619 c 2
 428 621 l 1
 580 419 l 1
 565 374 554 347 549 337 c 0
 530 302 502 274 465 255 c 2
73 214 m 0
 73 197 81 189 98 189 c 0
 114 189 122 197 122 214 c 0
 122 230 114 238 98 238 c 0
 81 238 73 230 73 214 c 0
73 139 m 0
 73 123 81 115 98 115 c 0
 114 115 122 123 122 139 c 0
 122 156 114 164 98 164 c 0
 81 164 73 156 73 139 c 0
EndSplineSet
Validated: 1
EndChar

StartChar: bracketleft
Encoding: 91 91 47
Width: 533
Flags: HW
LayerCount: 2
Back
Fore
SplineSet
383 577 m 6
 383 -23 l 6
 383 -47 388 -71 399 -95 c 4
 408 -114 420 -129 437 -142 c 4
 493 -178 571 -225 571 -225 c 5
 567 -231 l 5
 160 -53 l 5
 178 -48 l 5
 178 -48 227 -60 242 -60 c 4
 265 -60 281 -51 289 -32 c 4
 296 -15 300 15 300 59 c 6
 300 495 l 6
 300 540 296 572 289 589 c 4
 280 609 263 619 239 619 c 4
 224 619 178 608 178 608 c 5
 160 612 l 5
 567 786 l 5
 571 780 l 5
 437 696 l 6
 420 684 408 668 399 649 c 4
 388 626 383 602 383 577 c 6
EndSplineSet
Validated: 1
EndChar

StartChar: backslash
Encoding: 92 92 48
Width: 387
Flags: HW
LayerCount: 2
Back
Fore
SplineSet
328 104 m 1
 371 67 l 1
 371 0 l 1
 290 0 l 1
 290 15 l 1
 300 17 305 24 306 35 c 1
 69 544 l 1
 25 574 l 1
 25 647 l 1
 106 646 l 1
 106 633 l 1
 96 630 91 623 90 612 c 1
 328 104 l 1
EndSplineSet
Validated: 1
EndChar

StartChar: bracketright
Encoding: 93 93 49
Width: 428
Flags: HW
LayerCount: 2
Back
Fore
SplineSet
235 577 m 2
 235 601.666666667 229.666666667 625.666666667 219 649 c 0
 210.333333333 668.333333333 197.666666667 684 181 696 c 0
 180.333333333 696.666666667 135.666666667 724.666666667 47 780 c 1
 51 786 l 1
 458 612 l 1
 440 608 l 1
 414.666666667 615.333333333 394.333333333 619 379 619 c 0
 355 619 338.666666667 609 330 589 c 0
 322 571.666666667 318 540.333333333 318 495 c 2
 318 59 l 2
 318 15 321.666666667 -15.3333333333 329 -32 c 0
 337.666666667 -50.6666666667 353.333333333 -60 376 -60 c 0
 391.333333333 -60 412.666666667 -56 440 -48 c 1
 458 -53 l 1
 51 -231 l 1
 47 -225 l 1
 81 -205.666666667 125.666666667 -178 181 -142 c 0
 197.666666667 -129.333333333 210.333333333 -113.666666667 219 -95 c 0
 229.666666667 -71 235 -47 235 -23 c 2
 235 577 l 2
EndSplineSet
Validated: 524289
EndChar

StartChar: a
Encoding: 97 97 50
Width: 516
Flags: HW
LayerCount: 2
Back
Fore
SplineSet
210 -9 m 0
 158 -9 113.666666667 9.33333333333 77 46 c 128
 40.3333333333 82.6666666667 22 127.333333333 22 180 c 0
 22 232 40.3333333333 276.333333333 77 313 c 128
 113.666666667 349.666666667 158 368 210 368 c 0
 252 368 289.666666667 355.666666667 323 331 c 1
 322.333333333 341 319.166666667 352 313.5 364 c 128
 307.833333333 376 300 385.666666667 290 393 c 0
 284 397 271 406.666666667 251 422 c 1
 254 426 l 1
 503 298 l 1
 491 295 l 1
 481.666666667 299 472.333333333 302.666666667 463 306 c 0
 450.333333333 310 440.333333333 312 433 312 c 0
 413 312 402.666666667 298.333333333 402 271 c 2
 402 28 l 1
 407.333333333 20.6666666667 413 16 419 14 c 2
 419 14 419 14 474 3 c 1
 473 0 l 1
 330 0 l 1
 319 25 l 1
 286.333333333 2.33333333333 250 -9 210 -9 c 0
326 180 m 0
 326 226 314.5 266 291.5 300 c 128
 268.5 334 241.666666667 351 211 351 c 0
 181 351 155.666666667 334.333333333 135 301 c 128
 114.333333333 267.666666667 104 227.333333333 104 180 c 0
 104 133.333333333 114.166666667 94.1666666667 134.5 62.5 c 128
 154.833333333 30.8333333333 180.333333333 15 211 15 c 256
 241.666666667 15 268.5 31.1666666667 291.5 63.5 c 128
 314.5 95.8333333333 326 134.666666667 326 180 c 0
307 240 m 0
 307 230.666666667 302.666666667 226 294 226 c 0
 284.666666667 226 280 230.666666667 280 240 c 0
 280 248.666666667 284.666666667 253 294 253 c 0
 302.666666667 253 307 248.666666667 307 240 c 0
307 198 m 0
 307 189.333333333 302.666666667 185 294 185 c 0
 284.666666667 185 280 189.333333333 280 198 c 0
 280 207.333333333 284.666666667 212 294 212 c 0
 302.666666667 212 307 207.333333333 307 198 c 0
307 160 m 0
 307 150.666666667 302.666666667 146 294 146 c 0
 284.666666667 146 280 150.666666667 280 160 c 0
 280 168.666666667 284.666666667 173 294 173 c 0
 302.666666667 173 307 168.666666667 307 160 c 0
307 118 m 0
 307 109.333333333 302.666666667 105 294 105 c 0
 284.666666667 105 280 109.333333333 280 118 c 0
 280 127.333333333 284.666666667 132 294 132 c 0
 302.666666667 132 307 127.333333333 307 118 c 0
341 36 m 256
 341 26 346 21 356 21 c 256
 366 21 371 26 371 36 c 256
 371 46 366 51 356 51 c 256
 346 51 341 46 341 36 c 256
EndSplineSet
Validated: 524289
EndChar

StartChar: b
Encoding: 98 98 51
Width: 530
Flags: HW
LayerCount: 2
Back
Fore
SplineSet
295 368 m 0
 347.666666667 368 392.333333333 349.666666667 429 313 c 128
 465.666666667 276.333333333 484 232 484 180 c 0
 484 127.333333333 465.666666667 82.6666666667 429 46 c 128
 392.333333333 9.33333333333 347.666666667 -9 295 -9 c 0
 257 -9 222 1.66666666667 190 23 c 1
 180 0 l 1
 37 0 l 1
 36 3 l 1
 50 5.66666666667 68.3333333333 9.33333333333 91 14 c 0
 97 16 102.666666667 20.6666666667 108 28 c 1
 108 516 l 2
 107.333333333 543.333333333 97 557 77 557 c 0
 69.6666666667 557 59.6666666667 555 47 551 c 0
 37.6666666667 547.666666667 28.3333333333 544 19 540 c 1
 8 543 l 1
 256 671 l 1
 259 667 l 1
 256.333333333 665 243.333333333 655.333333333 220 638 c 0
 210 630.666666667 202.333333333 621.333333333 197 610 c 0
 190.333333333 595.333333333 187 580.666666667 187 566 c 2
 187 336 l 1
 218.333333333 357.333333333 254.333333333 368 295 368 c 0
411 180 m 0
 411 226 399.5 266 376.5 300 c 128
 353.5 334 326.666666667 351 296 351 c 0
 266 351 240.666666667 334.333333333 220 301 c 128
 199.333333333 267.666666667 189 227.333333333 189 180 c 0
 189 133.333333333 199.166666667 94.1666666667 219.5 62.5 c 128
 239.833333333 30.8333333333 265.333333333 15 296 15 c 0
 327.333333333 15 354.333333333 31.1666666667 377 63.5 c 128
 399.666666667 95.8333333333 411 134.666666667 411 180 c 0
392 240 m 0
 392 230.666666667 387.666666667 226 379 226 c 0
 369.666666667 226 365 230.666666667 365 240 c 0
 365 248.666666667 369.666666667 253 379 253 c 0
 387.666666667 253 392 248.666666667 392 240 c 0
392 198 m 0
 392 189.333333333 387.666666667 185 379 185 c 0
 369.666666667 185 365 189.333333333 365 198 c 0
 365 207.333333333 369.666666667 212 379 212 c 0
 387.666666667 212 392 207.333333333 392 198 c 0
392 160 m 0
 392 150.666666667 387.666666667 146 379 146 c 0
 369.666666667 146 365 150.666666667 365 160 c 0
 365 168.666666667 369.666666667 173 379 173 c 0
 387.666666667 173 392 168.666666667 392 160 c 0
392 118 m 0
 392 109.333333333 387.666666667 105 379 105 c 0
 369.666666667 105 365 109.333333333 365 118 c 0
 365 127.333333333 369.666666667 132 379 132 c 0
 387.666666667 132 392 127.333333333 392 118 c 0
177 188 m 0
 177 197.333333333 172 202 162 202 c 256
 152 202 147 197.333333333 147 188 c 0
 147 178 152 173 162 173 c 256
 172 173 177 178 177 188 c 0
177 142 m 256
 177 152 172 157 162 157 c 256
 152 157 147 152 147 142 c 256
 147 132 152 127 162 127 c 256
 172 127 177 132 177 142 c 256
177 100 m 256
 177 110 172 115 162 115 c 256
 152 115 147 110 147 100 c 256
 147 90 152 85 162 85 c 256
 172 85 177 90 177 100 c 256
177 54 m 256
 177 64 172 69 162 69 c 256
 152 69 147 64 147 54 c 256
 147 44 152 39 162 39 c 256
 172 39 177 44 177 54 c 256
EndSplineSet
Validated: 524289
EndChar

StartChar: c
Encoding: 99 99 52
Width: 444
Flags: HW
LayerCount: 2
Back
Fore
SplineSet
215 15 m 0
 185 15 159.833333333 30.8333333333 139.5 62.5 c 128
 119.166666667 94.1666666667 109 133.333333333 109 180 c 0
 109 227.333333333 119.166666667 267.666666667 139.5 301 c 128
 159.833333333 334.333333333 185 351 215 351 c 0
 242.333333333 351 267 337.333333333 289 310 c 0
 294.333333333 304 297 296.666666667 297 288 c 1
 297 294.666666667 294.666666667 284.333333333 290 257 c 0
 289.333333333 251.666666667 281.666666667 242.333333333 267 229 c 0
 266.333333333 229 247 215 209 187 c 1
 212 183 l 1
 418 310 l 1
 408 313 l 1
 385.333333333 303.666666667 369.666666667 299 361 299 c 0
 350.333333333 299 338.666666667 305.666666667 326 319 c 0
 292.666666667 351.666666667 255.666666667 368 215 368 c 0
 163 368 118.5 349.666666667 81.5 313 c 128
 44.5 276.333333333 26 232 26 180 c 0
 26 127.333333333 44.5 82.6666666667 81.5 46 c 128
 118.5 9.33333333333 163 -9 215 -9 c 0
 278.333333333 -9 329 16.6666666667 367 68 c 1
 284 148 l 1
 294 124.666666667 299 104.333333333 299 87 c 0
 299 39 271 15 215 15 c 0
162 240 m 0
 162 230.666666667 157.333333333 226 148 226 c 0
 139.333333333 226 135 230.666666667 135 240 c 0
 135 248.666666667 139.333333333 253 148 253 c 0
 157.333333333 253 162 248.666666667 162 240 c 0
162 198 m 0
 162 189.333333333 157.333333333 185 148 185 c 0
 139.333333333 185 135 189.333333333 135 198 c 0
 135 207.333333333 139.333333333 212 148 212 c 0
 157.333333333 212 162 207.333333333 162 198 c 0
162 160 m 0
 162 150.666666667 157.333333333 146 148 146 c 0
 139.333333333 146 135 150.666666667 135 160 c 0
 135 168.666666667 139.333333333 173 148 173 c 0
 157.333333333 173 162 168.666666667 162 160 c 0
162 118 m 0
 162 109.333333333 157.333333333 105 148 105 c 0
 139.333333333 105 135 109.333333333 135 118 c 0
 135 127.333333333 139.333333333 132 148 132 c 0
 157.333333333 132 162 127.333333333 162 118 c 0
EndSplineSet
Validated: 524329
EndChar

StartChar: d
Encoding: 100 100 53
Width: 457
Flags: HW
LayerCount: 2
Back
Fore
SplineSet
196 368 m 0
 144 368 99.6666666667 349.666666667 63 313 c 128
 26.3333333333 276.333333333 8 232 8 180 c 0
 8 127.333333333 26.3333333333 82.6666666667 63 46 c 128
 99.6666666667 9.33333333333 144 -9 196 -9 c 0
 234 -9 269.333333333 1.66666666667 302 23 c 1
 311 0 l 1
 455 0 l 1
 456 3 l 1
 442 5.66666666667 423.333333333 9.33333333333 400 14 c 0
 394 16 388.666666667 20.6666666667 384 28 c 1
 384 516 l 2
 384.666666667 543.333333333 394.666666667 557 414 557 c 0
 422 557 432.333333333 555 445 551 c 0
 454.333333333 547.666666667 463.666666667 544 473 540 c 1
 484 543 l 1
 235 671 l 1
 233 667 l 1
 235.666666667 665 248.666666667 655.333333333 272 638 c 0
 282 630.666666667 289.666666667 621.333333333 295 610 c 0
 301.666666667 595.333333333 305 580.666666667 305 566 c 2
 305 336 l 1
 273.666666667 357.333333333 237.333333333 368 196 368 c 0
80 180 m 0
 80 226 91.6666666667 266 115 300 c 128
 138.333333333 334 165.333333333 351 196 351 c 0
 226 351 251.166666667 334.333333333 271.5 301 c 128
 291.833333333 267.666666667 302 227.333333333 302 180 c 0
 302 133.333333333 292 94.1666666667 272 62.5 c 128
 252 30.8333333333 226.666666667 15 196 15 c 0
 164.666666667 15 137.5 31.1666666667 114.5 63.5 c 128
 91.5 95.8333333333 80 134.666666667 80 180 c 0
99 240 m 0
 99 230.666666667 103.666666667 226 113 226 c 256
 122.333333333 226 127 230.666666667 127 240 c 0
 127 248.666666667 122.333333333 253 113 253 c 256
 103.666666667 253 99 248.666666667 99 240 c 0
99 198 m 0
 99 189.333333333 103.666666667 185 113 185 c 256
 122.333333333 185 127 189.333333333 127 198 c 0
 127 207.333333333 122.333333333 212 113 212 c 256
 103.666666667 212 99 207.333333333 99 198 c 0
99 160 m 0
 99 150.666666667 103.666666667 146 113 146 c 256
 122.333333333 146 127 150.666666667 127 160 c 0
 127 168.666666667 122.333333333 173 113 173 c 256
 103.666666667 173 99 168.666666667 99 160 c 0
99 118 m 0
 99 109.333333333 103.666666667 105 113 105 c 256
 122.333333333 105 127 109.333333333 127 118 c 0
 127 127.333333333 122.333333333 132 113 132 c 256
 103.666666667 132 99 127.333333333 99 118 c 0
315 188 m 0
 315 197.333333333 320 202 330 202 c 256
 340 202 345 197.333333333 345 188 c 0
 345 178 340 173 330 173 c 256
 320 173 315 178 315 188 c 0
315 142 m 256
 315 152 320 157 330 157 c 256
 340 157 345 152 345 142 c 256
 345 132 340 127 330 127 c 256
 320 127 315 132 315 142 c 256
315 100 m 256
 315 110 320 115 330 115 c 256
 340 115 345 110 345 100 c 256
 345 90 340 85 330 85 c 256
 320 85 315 90 315 100 c 256
315 54 m 256
 315 64 320 69 330 69 c 256
 340 69 345 64 345 54 c 256
 345 44 340 39 330 39 c 256
 320 39 315 44 315 54 c 256
EndSplineSet
Validated: 524297
EndChar

StartChar: e
Encoding: 101 101 54
Width: 413
Flags: HW
LayerCount: 2
Back
Fore
SplineSet
368 68 m 1
 330.666666667 16.6666666667 280 -9 216 -9 c 0
 162 -9 116.333333333 10.6666666667 79 50 c 1
 37 20 l 1
 24 20 l 1
 27.3333333333 22.6666666667 42.6666666667 35.6666666667 70 59 c 1
 41.3333333333 93.6666666667 27 134 27 180 c 0
 27 232 45.5 276.333333333 82.5 313 c 128
 119.5 349.666666667 164 368 216 368 c 0
 246.666666667 368 276.666666667 357.5 306 336.5 c 128
 335.333333333 315.5 355.333333333 290.666666667 366 262 c 1
 128 87 l 1
 148.666666667 39 178.333333333 15 217 15 c 0
 272.333333333 15 300 39 300 87 c 0
 300 104.333333333 295 124.666666667 285 148 c 1
 368 68 l 1
290 310 m 0
 267.333333333 337.333333333 243 351 217 351 c 0
 186.333333333 351 160.833333333 334.333333333 140.5 301 c 128
 120.166666667 267.666666667 110 227.333333333 110 180 c 0
 110 153.333333333 114 127.666666667 122 103 c 1
 200 169.666666667 249 212 269 230 c 128
 289 248 299 266.666666667 299 286 c 0
 299 295.333333333 296 303.333333333 290 310 c 0
284 286 m 256
 284 276.666666667 279.333333333 272 270 272 c 0
 261.333333333 272 257 276.666666667 257 286 c 256
 257 295.333333333 261.333333333 300 270 300 c 0
 279.333333333 300 284 295.333333333 284 286 c 256
EndSplineSet
Validated: 524289
EndChar

StartChar: f
Encoding: 102 102 55
Width: 435
Flags: HW
LayerCount: 2
Back
Fore
SplineSet
243 566 m 2
 243 580.666666667 246.333333333 595.333333333 253 610 c 0
 258.333333333 621.333333333 266 630.666666667 276 638 c 0
 282 642 295 651.666666667 315 667 c 1
 313 671 l 1
 64 543 l 1
 75 540 l 1
 84.3333333333 544 93.6666666667 547.666666667 103 551 c 0
 115.666666667 555 126 557 134 557 c 0
 153.333333333 557 163.333333333 543.333333333 164 516 c 2
 164 289 l 1
 150 283 l 2
 135.333333333 277 122.666666667 274 112 274 c 0
 88.6666666667 274 77 285.333333333 77 308 c 0
 77 336.666666667 94 367 128 399 c 1
 94.6666666667 389.666666667 69.3333333333 373.333333333 52 350 c 0
 38 330.666666667 31 309.333333333 31 286 c 0
 31 270 34.3333333333 256.666666667 41 246 c 0
 55.6666666667 224 79.3333333333 213 112 213 c 0
 129.333333333 213 146.666666667 217.333333333 164 226 c 1
 164 28 l 1
 160.666666667 24 155 19.3333333333 147 14 c 1
 147 14 147 14 92 3 c 1
 93 0 l 1
 237 0 l 1
 275 91 l 1
 243 124 l 1
 243 275 l 1
 433 393 l 1
 243 319 l 1
 243 566 l 2
233 208 m 0
 233 217.333333333 228 222 218 222 c 256
 208 222 203 217.333333333 203 208 c 0
 203 198 208 193 218 193 c 256
 228 193 233 198 233 208 c 0
233 162 m 256
 233 172 228 177 218 177 c 256
 208 177 203 172 203 162 c 256
 203 152 208 147 218 147 c 256
 228 147 233 152 233 162 c 256
233 120 m 256
 233 130 228 135 218 135 c 256
 208 135 203 130 203 120 c 256
 203 110 208 105 218 105 c 256
 228 105 233 110 233 120 c 256
233 74 m 256
 233 84 228 89 218 89 c 256
 208 89 203 84 203 74 c 256
 203 64 208 59 218 59 c 256
 228 59 233 64 233 74 c 256
EndSplineSet
Validated: 524297
EndChar

StartChar: g
Encoding: 103 103 56
Width: 511
Flags: HW
LayerCount: 2
Back
Fore
SplineSet
485 344 m 1
 475.666666667 359.333333333 463.333333333 367 448 367 c 0
 437.333333333 367 427.833333333 363.5 419.5 356.5 c 128
 411.166666667 349.5 407 341 407 331 c 0
 407 327 408 323 410 319 c 2
 460 223 l 1
 406 270 l 1
 422 242 430 212 430 180 c 0
 430 127.333333333 411.5 82.6666666667 374.5 46 c 128
 337.5 9.33333333333 293 -9 241 -9 c 0
 198.333333333 -9 160.333333333 3.66666666667 127 29 c 1
 125 11 124 -2 124 -10 c 0
 124 -35.3333333333 133 -48 151 -48 c 0
 165 -48 195.666666667 -40.6666666667 243 -26 c 0
 261 -20 279.333333333 -17 298 -17 c 0
 329.333333333 -17 355.833333333 -24.3333333333 377.5 -39 c 128
 399.166666667 -53.6666666667 410 -73.6666666667 410 -99 c 0
 410 -129 403 -154 389 -174 c 0
 377 -190.666666667 356.333333333 -207.666666667 327 -225 c 0
 259.666666667 -263.666666667 210.333333333 -288.333333333 179 -299 c 1
 222.333333333 -253 250.333333333 -221.666666667 263 -205 c 0
 281.666666667 -181.666666667 297.333333333 -155.333333333 310 -126 c 0
 315.333333333 -113.333333333 318 -102 318 -92 c 0
 318 -58.6666666667 299 -44.3333333333 261 -49 c 0
 246.333333333 -51 218.333333333 -59 177 -73 c 0
 138.333333333 -85.6666666667 111 -92 95 -92 c 0
 66.3333333333 -92 52.3333333333 -76 53 -44 c 0
 53.6666666667 -17.3333333333 64.3333333333 21.6666666667 85 73 c 1
 63 105 52 140.666666667 52 180 c 0
 52 232 70.5 276.333333333 107.5 313 c 128
 144.5 349.666666667 189 368 241 368 c 0
 282.333333333 368 320 355.333333333 354 330 c 1
 353.333333333 334 353 338.333333333 353 343 c 0
 353 359.666666667 358.833333333 373.833333333 370.5 385.5 c 128
 382.166666667 397.166666667 396.333333333 403 413 403 c 0
 426.333333333 403 440.833333333 396.5 456.5 383.5 c 128
 472.166666667 370.5 481.666666667 357.333333333 485 344 c 1
357 180 m 0
 357 226 345.5 266 322.5 300 c 128
 299.5 334 272.333333333 351 241 351 c 0
 211 351 185.833333333 334.333333333 165.5 301 c 128
 145.166666667 267.666666667 135 227.333333333 135 180 c 0
 135 133.333333333 145.166666667 94.1666666667 165.5 62.5 c 128
 185.833333333 30.8333333333 211 15 241 15 c 0
 272.333333333 15 299.5 31.1666666667 322.5 63.5 c 128
 345.5 95.8333333333 357 134.666666667 357 180 c 0
187 242 m 256
 187 232.666666667 182.333333333 228 173 228 c 0
 164.333333333 228 160 232.666666667 160 242 c 256
 160 251.333333333 164.333333333 256 173 256 c 0
 182.333333333 256 187 251.333333333 187 242 c 256
187 201 m 0
 187 191.666666667 182.333333333 187 173 187 c 0
 164.333333333 187 160 191.666666667 160 201 c 0
 160 209.666666667 164.333333333 214 173 214 c 0
 182.333333333 214 187 209.666666667 187 201 c 0
187 162 m 256
 187 152.666666667 182.333333333 148 173 148 c 0
 164.333333333 148 160 152.666666667 160 162 c 256
 160 171.333333333 164.333333333 176 173 176 c 0
 182.333333333 176 187 171.333333333 187 162 c 256
187 121 m 0
 187 111.666666667 182.333333333 107 173 107 c 0
 164.333333333 107 160 111.666666667 160 121 c 0
 160 129.666666667 164.333333333 134 173 134 c 0
 182.333333333 134 187 129.666666667 187 121 c 0
EndSplineSet
Validated: 524321
EndChar

StartChar: h
Encoding: 104 104 57
Width: 536
Flags: HW
LayerCount: 2
Back
Fore
SplineSet
206 124 m 1
 238 91 l 1
 199 0 l 1
 56 0 l 1
 55 3 l 1
 69 5.66666666667 87.3333333333 9.33333333333 110 14 c 0
 116 16 121.666666667 20.6666666667 127 28 c 1
 127 516 l 2
 126.333333333 543.333333333 116 557 96 557 c 0
 88.6666666667 557 78.6666666667 555 66 551 c 0
 56.6666666667 547.666666667 47.3333333333 544 38 540 c 1
 27 543 l 1
 275 671 l 1
 278 667 l 1
 275.333333333 665 262.333333333 655.333333333 239 638 c 0
 229 630.666666667 221.333333333 621.333333333 216 610 c 0
 209.333333333 595.333333333 206 580.666666667 206 566 c 2
 206 271 l 1
 224.666666667 295.666666667 247.666666667 316.666666667 275 334 c 128
 302.333333333 351.333333333 327.666666667 360 351 360 c 0
 390.333333333 360 424 346 452 318 c 128
 480 290 494 256 494 216 c 0
 494 185.333333333 484.666666667 157 466 131 c 1
 276 -77 l 1
 391 165 l 2
 394.333333333 173 396 181.333333333 396 190 c 0
 396 212.666666667 384.166666667 232.666666667 360.5 250 c 128
 336.833333333 267.333333333 310 276 280 276 c 0
 251.333333333 276 226.666666667 267.666666667 206 251 c 1
 206 124 l 1
196 188 m 0
 196 197.333333333 191 202 181 202 c 256
 171 202 166 197.333333333 166 188 c 0
 166 178 171 173 181 173 c 256
 191 173 196 178 196 188 c 0
196 142 m 256
 196 152 191 157 181 157 c 256
 171 157 166 152 166 142 c 256
 166 132 171 127 181 127 c 256
 191 127 196 132 196 142 c 256
196 100 m 256
 196 110 191 115 181 115 c 256
 171 115 166 110 166 100 c 256
 166 90 171 85 181 85 c 256
 191 85 196 90 196 100 c 256
196 54 m 256
 196 64 191 69 181 69 c 256
 171 69 166 64 166 54 c 256
 166 44 171 39 181 39 c 256
 191 39 196 44 196 54 c 256
EndSplineSet
Validated: 524289
EndChar

StartChar: i
Encoding: 105 105 58
Width: 290
Flags: HW
LayerCount: 2
Back
Fore
SplineSet
264 362 m 1
 252 353.333333333 240.333333333 345 229 337 c 0
 215.666666667 326.333333333 206.666666667 315.666666667 202 305 c 0
 195.333333333 290.333333333 192 275.666666667 192 261 c 2
 192 124 l 1
 224 91 l 1
 185 0 l 1
 42 0 l 1
 41 3 l 1
 55 5.66666666667 73.3333333333 9.33333333333 96 14 c 0
 102 16 107.666666667 20.6666666667 113 28 c 1
 113 211 l 2
 112.333333333 238.333333333 102 252 82 252 c 0
 74.6666666667 252 64.6666666667 250 52 246 c 0
 42.6666666667 242.666666667 33.3333333333 239 24 235 c 1
 13 238 l 1
 160 314 l 1
 144.666666667 327.333333333 138 341.333333333 140 356 c 1
 122.666666667 351.333333333 108.666666667 333.666666667 98 303 c 1
 90 332.333333333 94 354.666666667 110 370 c 1
 89.3333333333 376 67 373.333333333 43 362 c 1
 55 383.333333333 73.3333333333 396 98 400 c 1
 89.3333333333 417.333333333 81.6666666667 428.333333333 75 433 c 128
 68.3333333333 437.666666667 58.3333333333 440.666666667 45 442 c 1
 55.6666666667 447.333333333 64.6666666667 450 72 450 c 0
 82.6666666667 450 95.6666666667 443.666666667 111 431 c 1
 115 443 117 453 117 461 c 0
 117 473.666666667 112.333333333 485.666666667 103 497 c 1
 129.666666667 483.666666667 142.666666667 465.333333333 142 442 c 1
 162.666666667 455.333333333 176.333333333 473 183 495 c 1
 186.333333333 487 188 478.333333333 188 469 c 0
 188 453 182.666666667 439.666666667 172 429 c 1
 179.333333333 424.333333333 187.333333333 422 196 422 c 0
 209.333333333 422 223.666666667 427 239 437 c 1
 225.666666667 411 207.333333333 398 184 398 c 1
 190 381.333333333 207.666666667 367.666666667 237 357 c 1
 225 354.333333333 215 353 207 353 c 0
 190.333333333 353 178 358 170 368 c 1
 164 356 164.333333333 340 171 320 c 1
 261 366 l 1
 264 362 l 1
182 188 m 0
 182 197.333333333 177 202 167 202 c 256
 157 202 152 197.333333333 152 188 c 0
 152 178 157 173 167 173 c 256
 177 173 182 178 182 188 c 0
182 142 m 256
 182 152 177 157 167 157 c 256
 157 157 152 152 152 142 c 256
 152 132 157 127 167 127 c 256
 177 127 182 132 182 142 c 256
182 100 m 256
 182 110 177 115 167 115 c 256
 157 115 152 110 152 100 c 256
 152 90 157 85 167 85 c 256
 177 85 182 90 182 100 c 256
182 54 m 256
 182 64 177 69 167 69 c 256
 157 69 152 64 152 54 c 256
 152 44 157 39 167 39 c 256
 177 39 182 44 182 54 c 256
EndSplineSet
Validated: 524321
EndChar

StartChar: j
Encoding: 106 106 59
Width: 383
Flags: HW
LayerCount: 2
Back
Fore
SplineSet
363 377 m 1
 347 365 347 365 331 353 c 0
 318.333333333 343 309.666666667 333 305 323 c 0
 298.333333333 309.666666667 295.333333333 296 296 282 c 2
 296 153 l 1
 326 121 l 1
 214 -26 l 2
 202 -41.3333333333 196 -50 196 -52 c 0
 196 -55.3333333333 199 -58.6666666667 205 -62 c 1
 187.666666667 -68 171.666666667 -74.3333333333 157 -81 c 0
 121 -96.3333333333 93 -112.333333333 73 -129 c 1
 65 -129 l 1
 194 8 l 2
 212 28 221 46 221 62 c 2
 221 235 l 2
 220.333333333 261 210.666666667 274 192 274 c 0
 184.666666667 274 175 271.666666667 163 267 c 0
 154.333333333 264.333333333 145.666666667 261.333333333 137 258 c 1
 126 261 l 1
 266 332 l 1
 251.333333333 344.666666667 244.666666667 358 246 372 c 1
 230 367.333333333 217 350.666666667 207 322 c 1
 199 349.333333333 202.666666667 370.333333333 218 385 c 1
 198.666666667 390.333333333 177.666666667 387.666666667 155 377 c 1
 165.666666667 397 182.666666667 409.333333333 206 414 c 1
 198.666666667 429.333333333 191.833333333 439.333333333 185.5 444 c 128
 179.166666667 448.666666667 169.666666667 451.666666667 157 453 c 1
 167 458.333333333 175.666666667 461 183 461 c 0
 193 461 205 454.666666667 219 442 c 1
 222.333333333 454 224 463.666666667 224 471 c 0
 224 482.333333333 220 493.666666667 212 505 c 1
 236.666666667 492.333333333 248.666666667 475 248 453 c 1
 267.333333333 465.666666667 280.333333333 482.333333333 287 503 c 1
 290.333333333 495 292 487 292 479 c 0
 292 463.666666667 287 450.666666667 277 440 c 1
 283.666666667 436 291 434 299 434 c 0
 311.666666667 434 325.333333333 438.666666667 340 448 c 1
 327.333333333 423.333333333 310 411 288 411 c 1
 293.333333333 395 310 382 338 372 c 1
 306.666666667 365.333333333 285.666666667 369 275 383 c 1
 269.666666667 372.333333333 270 357.333333333 276 338 c 1
 361 381 l 1
 363 377 l 1
286 293 m 256
 286 302.333333333 281.333333333 307 272 307 c 0
 262 307 257 302.333333333 257 293 c 256
 257 283.666666667 262 279 272 279 c 0
 281.333333333 279 286 283.666666667 286 293 c 256
286 250 m 256
 286 259.333333333 281.333333333 264 272 264 c 0
 262 264 257 259.333333333 257 250 c 256
 257 240.666666667 262 236 272 236 c 0
 281.333333333 236 286 240.666666667 286 250 c 256
286 210 m 256
 286 219.333333333 281.333333333 224 272 224 c 0
 262 224 257 219.333333333 257 210 c 256
 257 200.666666667 262 196 272 196 c 0
 281.333333333 196 286 200.666666667 286 210 c 256
286 167 m 256
 286 176.333333333 281.333333333 181 272 181 c 0
 262 181 257 176.333333333 257 167 c 256
 257 157.666666667 262 153 272 153 c 0
 281.333333333 153 286 157.666666667 286 167 c 256
EndSplineSet
Validated: 524321
EndChar

StartChar: k
Encoding: 107 107 60
Width: 478
Flags: HW
LayerCount: 2
Back
Fore
SplineSet
469 286 m 1
 372.333333333 279.333333333 324 244.666666667 324 182 c 0
 324 161.333333333 329.333333333 140.666666667 340 120 c 2
 465 -123 l 1
 275 85 l 1
 255.666666667 111.666666667 246 140.333333333 246 171 c 0
 246 207.666666667 255.666666667 238 275 262 c 1
 248 262 l 1
 199 219 l 1
 199 124 l 1
 231 91 l 1
 192 0 l 1
 49 0 l 1
 48 3 l 1
 62 5.66666666667 80.3333333333 9.33333333333 103 14 c 0
 109 16 114.666666667 20.6666666667 120 28 c 1
 120 516 l 2
 119.333333333 543.333333333 109 557 89 557 c 0
 81.6666666667 557 71.6666666667 555 59 551 c 0
 49.6666666667 547.666666667 40.3333333333 544 31 540 c 1
 20 543 l 1
 268 671 l 1
 271 667 l 1
 268.333333333 665 255.333333333 655.333333333 232 638 c 0
 222 630.666666667 214.333333333 621.333333333 209 610 c 0
 202.333333333 595.333333333 199 580.666666667 199 566 c 2
 199 296 l 1
 326 432 l 1
 447 432 l 1
 329 302 l 1
 349 310.666666667 367 315 383 315 c 0
 410.333333333 315 439 305.333333333 469 286 c 1
189 188 m 0
 189 197.333333333 184 202 174 202 c 256
 164 202 159 197.333333333 159 188 c 0
 159 178 164 173 174 173 c 256
 184 173 189 178 189 188 c 0
189 142 m 256
 189 152 184 157 174 157 c 256
 164 157 159 152 159 142 c 256
 159 132 164 127 174 127 c 256
 184 127 189 132 189 142 c 256
189 100 m 256
 189 110 184 115 174 115 c 256
 164 115 159 110 159 100 c 256
 159 90 164 85 174 85 c 256
 184 85 189 90 189 100 c 256
189 54 m 256
 189 64 184 69 174 69 c 256
 164 69 159 64 159 54 c 256
 159 44 164 39 174 39 c 256
 184 39 189 44 189 54 c 256
EndSplineSet
Validated: 524289
EndChar

StartChar: l
Encoding: 108 108 61
Width: 331
Flags: HW
LayerCount: 2
Back
Fore
SplineSet
293 667 m 1
 291 665 278.333333333 655.333333333 255 638 c 0
 244.333333333 630.666666667 236.666666667 621.333333333 232 610 c 0
 225.333333333 595.333333333 222 580.666666667 222 566 c 2
 222 124 l 1
 254 91 l 1
 215 0 l 1
 71 0 l 1
 70 3 l 1
 84 5.66666666667 102.666666667 9.33333333333 126 14 c 0
 132 16 137.333333333 20.6666666667 142 28 c 1
 142 516 l 2
 141.333333333 543.333333333 131.333333333 557 112 557 c 0
 104.666666667 557 94.6666666667 555 82 551 c 0
 72.6666666667 547.666666667 63 544 53 540 c 1
 42 543 l 1
 291 671 l 1
 293 667 l 1
211 313 m 0
 211 322.333333333 206 327 196 327 c 0
 186.666666667 327 182 322.333333333 182 313 c 0
 182 303 186.666666667 298 196 298 c 0
 206 298 211 303 211 313 c 0
211 267 m 256
 211 277 206 282 196 282 c 0
 186.666666667 282 182 277 182 267 c 256
 182 257 186.666666667 252 196 252 c 0
 206 252 211 257 211 267 c 256
211 225 m 256
 211 235 206 240 196 240 c 0
 186.666666667 240 182 235 182 225 c 256
 182 215 186.666666667 210 196 210 c 0
 206 210 211 215 211 225 c 256
211 179 m 256
 211 189 206 194 196 194 c 0
 186.666666667 194 182 189 182 179 c 256
 182 169 186.666666667 164 196 164 c 0
 206 164 211 169 211 179 c 256
261 85 m 1
 346 10 l 1
 341 0 l 1
 226 0 l 1
 261 85 l 1
EndSplineSet
Validated: 524289
EndChar

StartChar: m
Encoding: 109 109 62
Width: 692
Flags: HW
LayerCount: 2
Back
Fore
SplineSet
424 216 m 0
 424 185.333333333 414.666666667 157 396 131 c 1
 206 -77 l 1
 321 165 l 2
 324.333333333 173 326 181.333333333 326 190 c 0
 326 212.666666667 314.166666667 232.666666667 290.5 250 c 128
 266.833333333 267.333333333 240 276 210 276 c 0
 198.666666667 276 188 274.666666667 178 272 c 1
 178 124 l 1
 210 91 l 1
 171 0 l 1
 28 0 l 1
 27 3 l 1
 41 5.66666666667 59.3333333333 9.33333333333 82 14 c 0
 88 16 93.6666666667 20.6666666667 99 28 c 1
 99 271 l 2
 98.3333333333 298.333333333 88 312 68 312 c 0
 60.6666666667 312 50.6666666667 310 38 306 c 0
 28.6666666667 302.666666667 19.3333333333 299 10 295 c 1
 -2 298 l 1
 247 426 l 1
 250 422 l 1
 247.333333333 420 234.333333333 410.333333333 211 393 c 0
 201 385.666666667 193.333333333 376.333333333 188 365 c 0
 181.333333333 350.333333333 178 335.666666667 178 321 c 2
 178 314 l 1
 215.333333333 344.666666667 249.666666667 360 281 360 c 0
 329 360 367 341 395 303 c 1
 435 341 473.666666667 360 511 360 c 0
 550.333333333 360 584 346 612 318 c 128
 640 290 654 256 654 216 c 0
 654 185.333333333 644.666666667 157 626 131 c 1
 436 -77 l 1
 551 165 l 2
 554.333333333 173 556 181.333333333 556 190 c 0
 556 212.666666667 544 232.666666667 520 250 c 128
 496 267.333333333 468.666666667 276 438 276 c 0
 429.333333333 276 421 275 413 273 c 1
 420.333333333 254.333333333 424 235.333333333 424 216 c 0
168 188 m 0
 168 197.333333333 163 202 153 202 c 256
 143 202 138 197.333333333 138 188 c 0
 138 178 143 173 153 173 c 256
 163 173 168 178 168 188 c 0
168 142 m 256
 168 152 163 157 153 157 c 256
 143 157 138 152 138 142 c 256
 138 132 143 127 153 127 c 256
 163 127 168 132 168 142 c 256
168 100 m 256
 168 110 163 115 153 115 c 256
 143 115 138 110 138 100 c 256
 138 90 143 85 153 85 c 256
 163 85 168 90 168 100 c 256
168 54 m 256
 168 64 163 69 153 69 c 256
 143 69 138 64 138 54 c 256
 138 44 143 39 153 39 c 256
 163 39 168 44 168 54 c 256
EndSplineSet
Validated: 524289
EndChar

StartChar: n
Encoding: 110 110 63
Width: 509
Flags: HW
LayerCount: 2
Back
Fore
SplineSet
178 124 m 1
 210 91 l 1
 171 0 l 1
 28 0 l 1
 27 3 l 1
 41 5.66666666667 59.3333333333 9.33333333333 82 14 c 0
 88 16 93.6666666667 20.6666666667 99 28 c 1
 99 271 l 2
 98.3333333333 298.333333333 88 312 68 312 c 0
 60.6666666667 312 50.6666666667 310 38 306 c 0
 28.6666666667 302.666666667 19.3333333333 299 10 295 c 1
 -2 298 l 1
 247 426 l 1
 250 422 l 1
 247.333333333 420 234.333333333 410.333333333 211 393 c 0
 201 385.666666667 193.333333333 376.333333333 188 365 c 0
 181.333333333 350.333333333 178 335.666666667 178 321 c 2
 178 271 l 1
 196.666666667 295 219.666666667 315.833333333 247 333.5 c 128
 274.333333333 351.166666667 299.666666667 360 323 360 c 0
 362.333333333 360 396 346 424 318 c 128
 452 290 466 256 466 216 c 0
 466 185.333333333 456.666666667 157 438 131 c 1
 248 -77 l 1
 363 165 l 2
 366.333333333 173 368 181.333333333 368 190 c 0
 368 212.666666667 356.166666667 232.666666667 332.5 250 c 128
 308.833333333 267.333333333 282 276 252 276 c 0
 223.333333333 276 198.666666667 267.666666667 178 251 c 1
 178 124 l 1
168 188 m 0
 168 197.333333333 163 202 153 202 c 256
 143 202 138 197.333333333 138 188 c 0
 138 178 143 173 153 173 c 256
 163 173 168 178 168 188 c 0
168 142 m 256
 168 152 163 157 153 157 c 256
 143 157 138 152 138 142 c 256
 138 132 143 127 153 127 c 256
 163 127 168 132 168 142 c 256
168 100 m 256
 168 110 163 115 153 115 c 256
 143 115 138 110 138 100 c 256
 138 90 143 85 153 85 c 256
 163 85 168 90 168 100 c 256
168 54 m 256
 168 64 163 69 153 69 c 256
 143 69 138 64 138 54 c 256
 138 44 143 39 153 39 c 256
 163 39 168 44 168 54 c 256
EndSplineSet
Validated: 524289
EndChar

StartChar: o
Encoding: 111 111 64
Width: 445
Flags: HW
LayerCount: 2
Back
Fore
SplineSet
398 180 m 0
 398 127.333333333 379.666666667 82.6666666667 343 46 c 128
 306.333333333 9.33333333333 261.666666667 -9 209 -9 c 0
 157 -9 112.666666667 9.33333333333 76 46 c 128
 39.3333333333 82.6666666667 21 127.333333333 21 180 c 0
 21 232 39.3333333333 276.333333333 76 313 c 128
 112.666666667 349.666666667 157 368 209 368 c 0
 261.666666667 368 306.333333333 349.666666667 343 313 c 128
 379.666666667 276.333333333 398 232 398 180 c 0
325 180 m 0
 325 226 313.5 266 290.5 300 c 128
 267.5 334 240.666666667 351 210 351 c 0
 180 351 154.666666667 334.333333333 134 301 c 128
 113.333333333 267.666666667 103 227.333333333 103 180 c 0
 103 133.333333333 113.166666667 94.1666666667 133.5 62.5 c 128
 153.833333333 30.8333333333 179.333333333 15 210 15 c 256
 240.666666667 15 267.5 31.1666666667 290.5 63.5 c 128
 313.5 95.8333333333 325 134.666666667 325 180 c 0
306 240 m 0
 306 230.666666667 301.666666667 226 293 226 c 0
 283.666666667 226 279 230.666666667 279 240 c 0
 279 248.666666667 283.666666667 253 293 253 c 0
 301.666666667 253 306 248.666666667 306 240 c 0
306 198 m 0
 306 189.333333333 301.666666667 185 293 185 c 0
 283.666666667 185 279 189.333333333 279 198 c 0
 279 207.333333333 283.666666667 212 293 212 c 0
 301.666666667 212 306 207.333333333 306 198 c 0
306 160 m 0
 306 150.666666667 301.666666667 146 293 146 c 0
 283.666666667 146 279 150.666666667 279 160 c 0
 279 168.666666667 283.666666667 173 293 173 c 0
 301.666666667 173 306 168.666666667 306 160 c 0
306 118 m 0
 306 109.333333333 301.666666667 105 293 105 c 0
 283.666666667 105 279 109.333333333 279 118 c 0
 279 127.333333333 283.666666667 132 293 132 c 0
 301.666666667 132 306 127.333333333 306 118 c 0
EndSplineSet
Validated: 524289
EndChar

StartChar: p
Encoding: 112 112 65
Width: 550
Flags: HW
LayerCount: 2
Back
Fore
SplineSet
321 368 m 0
 373 368 417.333333333 349.666666667 454 313 c 128
 490.666666667 276.333333333 509 232 509 180 c 0
 509 127.333333333 490.666666667 82.6666666667 454 46 c 128
 417.333333333 9.33333333333 373 -9 321 -9 c 0
 276.333333333 -9 236.333333333 5.66666666667 201 35 c 1
 201 -136 l 1
 232 -169 l 1
 193 -260 l 1
 50 -260 l 1
 49 -257 l 1
 63 -254.333333333 81.3333333333 -250.666666667 104 -246 c 0
 110 -244 115.666666667 -239.333333333 121 -232 c 1
 121 302 l 2
 120.333333333 330 110 344 90 344 c 0
 82.6666666667 344 72.6666666667 341.666666667 60 337 c 0
 46 332 46 332 32 327 c 1
 20 330 l 1
 269 457 l 1
 272 454 l 1
 269.333333333 452 256.333333333 442.333333333 233 425 c 0
 223 417.666666667 215.166666667 407.666666667 209.5 395 c 128
 203.833333333 382.333333333 201 368 201 352 c 2
 201 324 l 1
 235.666666667 353.333333333 275.666666667 368 321 368 c 0
205 180 m 0
 205 134.666666667 216.5 95.8333333333 239.5 63.5 c 128
 262.5 31.1666666667 289.333333333 15 320 15 c 256
 350.666666667 15 376.166666667 30.8333333333 396.5 62.5 c 128
 416.833333333 94.1666666667 427 133.333333333 427 180 c 0
 427 227.333333333 416.666666667 267.666666667 396 301 c 128
 375.333333333 334.333333333 350 351 320 351 c 0
 289.333333333 351 262.5 334 239.5 300 c 128
 216.5 266 205 226 205 180 c 0
177 -62 m 0
 177 -52.6666666667 172 -48 162 -48 c 256
 152 -48 147 -52.6666666667 147 -62 c 0
 147 -72 152 -77 162 -77 c 256
 172 -77 177 -72 177 -62 c 0
177 -108 m 256
 177 -98 172 -93 162 -93 c 256
 152 -93 147 -98 147 -108 c 256
 147 -118 152 -123 162 -123 c 256
 172 -123 177 -118 177 -108 c 256
177 -150 m 256
 177 -140 172 -135 162 -135 c 256
 152 -135 147 -140 147 -150 c 256
 147 -160 152 -165 162 -165 c 256
 172 -165 177 -160 177 -150 c 256
177 -196 m 256
 177 -186 172 -181 162 -181 c 256
 152 -181 147 -186 147 -196 c 256
 147 -206 152 -211 162 -211 c 256
 172 -211 177 -206 177 -196 c 256
EndSplineSet
Validated: 524289
EndChar

StartChar: q
Encoding: 113 113 66
Width: 524
Flags: HW
LayerCount: 2
Back
Fore
SplineSet
209 368 m 0
 157 368 112.5 349.666666667 75.5 313 c 128
 38.5 276.333333333 20 232 20 180 c 0
 20 127.333333333 38.5 82.6666666667 75.5 46 c 128
 112.5 9.33333333333 157 -9 209 -9 c 0
 253.666666667 -9 293.666666667 5.66666666667 329 35 c 1
 329 -136 l 1
 298 -169 l 1
 337 -260 l 1
 480 -260 l 1
 481 -257 l 1
 467 -254.333333333 448.666666667 -250.666666667 426 -246 c 0
 420 -244 414.333333333 -239.333333333 409 -232 c 1
 409 302 l 2
 409.666666667 330 420 344 440 344 c 0
 447.333333333 344 457.333333333 341.666666667 470 337 c 0
 484 332 484 332 498 327 c 1
 509 330 l 1
 261 457 l 1
 258 454 l 1
 260.666666667 452 273.666666667 442.333333333 297 425 c 0
 307 417.666666667 314.833333333 407.666666667 320.5 395 c 128
 326.166666667 382.333333333 329 368 329 352 c 2
 329 324 l 1
 294.333333333 353.333333333 254.333333333 368 209 368 c 0
325 180 m 0
 325 134.666666667 313.5 95.8333333333 290.5 63.5 c 128
 267.5 31.1666666667 240.666666667 15 210 15 c 256
 179.333333333 15 153.833333333 30.8333333333 133.5 62.5 c 128
 113.166666667 94.1666666667 103 133.333333333 103 180 c 0
 103 227.333333333 113.166666667 267.666666667 133.5 301 c 128
 153.833333333 334.333333333 179.333333333 351 210 351 c 256
 240.666666667 351 267.5 334 290.5 300 c 128
 313.5 266 325 226 325 180 c 0
353 -62 m 0
 353 -52.6666666667 358 -48 368 -48 c 256
 378 -48 383 -52.6666666667 383 -62 c 0
 383 -72 378 -77 368 -77 c 256
 358 -77 353 -72 353 -62 c 0
353 -108 m 256
 353 -98 358 -93 368 -93 c 256
 378 -93 383 -98 383 -108 c 256
 383 -118 378 -123 368 -123 c 256
 358 -123 353 -118 353 -108 c 256
353 -150 m 256
 353 -140 358 -135 368 -135 c 256
 378 -135 383 -140 383 -150 c 256
 383 -160 378 -165 368 -165 c 256
 358 -165 353 -160 353 -150 c 256
353 -196 m 256
 353 -186 358 -181 368 -181 c 256
 378 -181 383 -186 383 -196 c 256
 383 -206 378 -211 368 -211 c 256
 358 -211 353 -206 353 -196 c 256
EndSplineSet
Validated: 524297
EndChar

StartChar: r
Encoding: 114 114 67
Width: 426
Flags: HW
LayerCount: 2
Back
Fore
SplineSet
106 303 m 2
 105.333333333 330.333333333 95 344 75 344 c 0
 67.6666666667 344 57.6666666667 342 45 338 c 0
 35.6666666667 334.666666667 26.3333333333 331 17 327 c 1
 6 330 l 1
 254 458 l 1
 257 454 l 1
 254.333333333 452 241.333333333 442.333333333 218 425 c 0
 208 417.666666667 200.333333333 408.333333333 195 397 c 0
 188.333333333 382.333333333 185 367.666666667 185 353 c 2
 185 316 l 1
 214 341 l 2
 240.666666667 364.333333333 263.333333333 377 282 379 c 0
 291.333333333 379.666666667 299.666666667 380 307 380 c 0
 325 380 338 377 346 371 c 0
 347.333333333 369.666666667 354.5 361.833333333 367.5 347.5 c 128
 380.5 333.166666667 387 315.333333333 387 294 c 0
 387 263.333333333 372 234 342 206 c 1
 348 220.666666667 351 234 351 246 c 0
 351 278.666666667 333.666666667 295 299 295 c 0
 283 295 265.666666667 290.666666667 247 282 c 2
 185 253 l 1
 185 124 l 1
 217 91 l 1
 178 0 l 1
 35 0 l 1
 34 3 l 1
 48 5.66666666667 66.3333333333 9.33333333333 89 14 c 0
 95 16 100.666666667 20.6666666667 106 28 c 1
 106 218 l 1
 28 182 l 1
 106 249 l 1
 106 303 l 2
175 263 m 0
 175 272.333333333 170 277 160 277 c 256
 150 277 145 272.333333333 145 263 c 0
 145 253 150 248 160 248 c 256
 170 248 175 253 175 263 c 0
175 217 m 256
 175 227 170 232 160 232 c 256
 150 232 145 227 145 217 c 256
 145 207 150 202 160 202 c 256
 170 202 175 207 175 217 c 256
175 175 m 256
 175 185 170 190 160 190 c 256
 150 190 145 185 145 175 c 256
 145 165 150 160 160 160 c 256
 170 160 175 165 175 175 c 256
175 129 m 256
 175 139 170 144 160 144 c 256
 150 144 145 139 145 129 c 256
 145 119 150 114 160 114 c 256
 170 114 175 119 175 129 c 256
EndSplineSet
Validated: 524289
EndChar

StartChar: s
Encoding: 115 115 68
Width: 386
Flags: HW
LayerCount: 2
Back
Fore
SplineSet
157 196 m 1
 249 91 l 1
 254.333333333 100.333333333 257 110.666666667 257 122 c 0
 257 142 250.166666667 159.833333333 236.5 175.5 c 128
 222.833333333 191.166666667 204.666666667 199 182 199 c 0
 174 199 165.666666667 198 157 196 c 1
78 164 m 1
 43.3333333333 194 26 231 26 275 c 0
 26 320.333333333 46.6666666667 356.333333333 88 383 c 0
 107.333333333 395 129.666666667 401 155 401 c 0
 178.333333333 401 197.333333333 395.333333333 212 384 c 1
 215.333333333 399.333333333 219 414.666666667 223 430 c 1
 262 433 l 1
 180 246 l 1
 176 246 l 1
 180.666666667 260.666666667 186 280.333333333 192 305 c 0
 193.333333333 313 191.666666667 320.666666667 187 328 c 0
 180.333333333 340.666666667 172 345.333333333 162 342 c 0
 132 330.666666667 117 307.333333333 117 272 c 0
 117 248.666666667 125.333333333 228.666666667 142 212 c 2
 155 198 l 1
 173.666666667 208.666666667 198.666666667 214 230 214 c 0
 272 214 303 205 323 187 c 0
 347 165.666666667 359 138.666666667 359 106 c 0
 359 78.6666666667 349.666666667 54.6666666667 331 34 c 0
 315 16 295 4.66666666667 271 0 c 1
 42 0 l 1
 224 70 l 2
 228 72 231.666666667 74 235 76 c 1
 78 164 l 1
341 129 m 256
 341 139 336.333333333 144 327 144 c 0
 317 144 312 139 312 129 c 256
 312 119 317 114 327 114 c 0
 336.333333333 114 341 119 341 129 c 256
341 84 m 256
 341 94 336.333333333 99 327 99 c 0
 317 99 312 94 312 84 c 256
 312 74 317 69 327 69 c 0
 336.333333333 69 341 74 341 84 c 256
EndSplineSet
Validated: 524289
EndChar

StartChar: t
Encoding: 116 116 69
Width: 372
Flags: HW
LayerCount: 2
Back
Fore
SplineSet
25 376 m 1
 133 376 l 1
 133 411 l 2
 132.333333333 438.333333333 122.333333333 452 103 452 c 0
 95.6666666667 452 85.6666666667 450 73 446 c 0
 63 442.666666667 53.3333333333 439 44 435 c 1
 33 438 l 1
 282 566 l 1
 284 562 l 1
 282 560 269.333333333 550.333333333 246 533 c 0
 235.333333333 525.666666667 227.666666667 516.333333333 223 505 c 0
 216.333333333 490.333333333 213 475.666666667 213 461 c 2
 213 376 l 1
 307 376 l 1
 343 289 l 1
 213 289 l 1
 213 124 l 1
 245 91 l 1
 206 0 l 1
 62 0 l 1
 61 3 l 1
 75 5.66666666667 93.6666666667 9.33333333333 117 14 c 0
 123 16 128.333333333 20.6666666667 133 28 c 1
 133 289 l 1
 63 289 l 1
 25 376 l 1
202 313 m 0
 202 322.333333333 197 327 187 327 c 256
 177 327 172 322.333333333 172 313 c 0
 172 303 177 298 187 298 c 256
 197 298 202 303 202 313 c 0
202 267 m 256
 202 277 197 282 187 282 c 256
 177 282 172 277 172 267 c 256
 172 257 177 252 187 252 c 256
 197 252 202 257 202 267 c 256
202 225 m 256
 202 235 197 240 187 240 c 256
 177 240 172 235 172 225 c 256
 172 215 177 210 187 210 c 256
 197 210 202 215 202 225 c 256
202 179 m 256
 202 189 197 194 187 194 c 256
 177 194 172 189 172 179 c 256
 172 169 177 164 187 164 c 256
 197 164 202 169 202 179 c 256
252 85 m 1
 337 10 l 1
 332 0 l 1
 217 0 l 1
 252 85 l 1
EndSplineSet
Validated: 524289
EndChar

StartChar: u
Encoding: 117 117 70
Width: 410
Flags: HW
LayerCount: 2
Back
Fore
SplineSet
388 472 m 1
 385.333333333 470 372.666666667 460.333333333 350 443 c 0
 339.333333333 435.666666667 331.333333333 426.333333333 326 415 c 0
 319.333333333 400.333333333 316.333333333 385.666666667 317 371 c 2
 317 124 l 1
 348 91 l 1
 310 0 l 1
 162 0 l 2
 130.666666667 0 103.333333333 6.66666666667 80 20 c 0
 54 34.6666666667 37.3333333333 55.6666666667 30 83 c 0
 22.6666666667 107.666666667 23.6666666667 132.666666667 33 158 c 2
 115 389 l 1
 100 148 l 2
 98.6666666667 126.666666667 104.666666667 107.5 118 90.5 c 128
 131.333333333 73.5 148.666666667 65 170 65 c 256
 191.333333333 65 213.666666667 74.3333333333 237 93 c 1
 237 321 l 2
 236.333333333 348.333333333 226.333333333 362 207 362 c 0
 199 362 188.666666667 360 176 356 c 0
 166.666666667 352.666666667 157.333333333 349 148 345 c 1
 137 348 l 1
 386 476 l 1
 388 472 l 1
294 182 m 256
 294 192 289 197 279 197 c 256
 269 197 264 192 264 182 c 256
 264 172 269 167 279 167 c 256
 289 167 294 172 294 182 c 256
294 137 m 0
 294 146.333333333 289 151 279 151 c 256
 269 151 264 146.333333333 264 137 c 0
 264 127 269 122 279 122 c 256
 289 122 294 127 294 137 c 0
294 94 m 256
 294 104 289 109 279 109 c 256
 269 109 264 104 264 94 c 256
 264 84 269 79 279 79 c 256
 289 79 294 84 294 94 c 256
294 49 m 256
 294 59 289 64 279 64 c 256
 269 64 264 59 264 49 c 256
 264 39 269 34 279 34 c 256
 289 34 294 39 294 49 c 256
EndSplineSet
Validated: 524321
EndChar

StartChar: v
Encoding: 118 118 71
Width: 490
Flags: HW
LayerCount: 2
Back
Fore
SplineSet
310 292 m 2
 316.666666667 305.333333333 320 316.666666667 320 326 c 0
 320 342.666666667 308.333333333 351 285 351 c 0
 274.333333333 351 262 349 248 345 c 1
 238 348 l 1
 525 426 l 1
 525 422 l 1
 521.666666667 420 503.666666667 410.666666667 471 394 c 0
 457 386 444.333333333 376.333333333 433 365 c 0
 418.333333333 350.333333333 407.333333333 335.666666667 400 321 c 2
 298 124 l 1
 312 91 l 1
 225 0 l 1
 186 -1 l 1
 109 171 l 1
 63.6666666667 173 43.3333333333 173.333333333 48 172 c 1
 -17 341 l 1
 103 341 l 1
 204 102 l 1
 310 292 l 2
105 312 m 0
 101.666666667 321.333333333 95.3333333333 324.333333333 86 321 c 256
 76.6666666667 317.666666667 73.6666666667 311.333333333 77 302 c 0
 81 292.666666667 87.6666666667 289.666666667 97 293 c 256
 106.333333333 296.333333333 109 302.666666667 105 312 c 0
122 270 m 0
 118 279.333333333 111.333333333 282.333333333 102 279 c 0
 92.6666666667 275 90 268.333333333 94 259 c 0
 97.3333333333 249.666666667 103.666666667 247 113 251 c 0
 122.333333333 254.333333333 125.333333333 260.666666667 122 270 c 0
137 230 m 0
 133 239.333333333 126.333333333 242.333333333 117 239 c 0
 108.333333333 235.666666667 105.666666667 229.333333333 109 220 c 256
 112.333333333 210.666666667 118.666666667 207.666666667 128 211 c 256
 137.333333333 214.333333333 140.333333333 220.666666667 137 230 c 0
EndSplineSet
Validated: 524325
EndChar

StartChar: w
Encoding: 119 119 72
Width: 677
Flags: HW
LayerCount: 2
Back
Fore
SplineSet
725 422 m 1
 721.666666667 420 703.666666667 410.666666667 671 394 c 0
 657 386 644.333333333 376.333333333 633 365 c 0
 618.333333333 350.333333333 607.333333333 335.666666667 600 321 c 2
 491 117 l 1
 512 91 l 1
 425 0 l 1
 386 -1 l 1
 314 158 l 1
 293 119 l 1
 312 91 l 1
 225 0 l 1
 186 -1 l 1
 109 171 l 1
 48 172 l 1
 -17 341 l 1
 103 341 l 1
 204 102 l 1
 310 292 l 2
 316.666666667 305.333333333 320 316.666666667 320 326 c 0
 320 342.666666667 308.333333333 351 285 351 c 0
 274.333333333 351 262 349 248 345 c 1
 238 348 l 1
 525 426 l 1
 525 422 l 1
 521.666666667 420 503.666666667 410.666666667 471 394 c 0
 457 386 444.333333333 376.333333333 433 365 c 0
 418.333333333 350.333333333 407.333333333 335.666666667 400 321 c 2
 349 225 l 1
 404 102 l 1
 510 292 l 2
 516.666666667 305.333333333 520 316.666666667 520 326 c 0
 520 342.666666667 508.333333333 351 485 351 c 0
 474.333333333 351 462 349 448 345 c 1
 438 348 l 1
 725 426 l 1
 725 422 l 1
473 93 m 0
 469 102.333333333 462.333333333 105.333333333 453 102 c 0
 443.666666667 98 441 91.3333333333 445 82 c 0
 448.333333333 72.6666666667 454.666666667 70 464 74 c 0
 473.333333333 77.3333333333 476.333333333 83.6666666667 473 93 c 0
105 312 m 0
 101.666666667 321.333333333 95.3333333333 324.333333333 86 321 c 256
 76.6666666667 317.666666667 73.6666666667 311.333333333 77 302 c 0
 81 292.666666667 87.6666666667 289.666666667 97 293 c 256
 106.333333333 296.333333333 109 302.666666667 105 312 c 0
122 270 m 0
 118 279.333333333 111.333333333 282.333333333 102 279 c 0
 92.6666666667 275 90 268.333333333 94 259 c 0
 97.3333333333 249.666666667 103.666666667 247 113 251 c 0
 122.333333333 254.333333333 125.333333333 260.666666667 122 270 c 0
137 230 m 0
 133 239.333333333 126.333333333 242.333333333 117 239 c 0
 108.333333333 235.666666667 105.666666667 229.333333333 109 220 c 256
 112.333333333 210.666666667 118.666666667 207.666666667 128 211 c 256
 137.333333333 214.333333333 140.333333333 220.666666667 137 230 c 0
EndSplineSet
Validated: 524289
EndChar

StartChar: x
Encoding: 120 120 73
Width: 515
Flags: HW
LayerCount: 2
Back
Fore
SplineSet
310 292 m 2
 316.666666667 305.333333333 320 316.666666667 320 326 c 0
 320 342.666666667 308.333333333 351 285 351 c 0
 274.333333333 351 262 349 248 345 c 1
 238 348 l 1
 525 426 l 1
 525 422 l 1
 521.666666667 420 503.666666667 410.666666667 471 394 c 0
 457 386 444.333333333 376.333333333 433 365 c 0
 418.333333333 350.333333333 407.333333333 335.666666667 400 321 c 2
 332 190 l 1
 483 -17 l 1
 474 -18 l 1
 308 145 l 1
 298 124 l 1
 312 91 l 1
 225 0 l 1
 82 0 l 1
 83 3 l 1
 97.6666666667 5.66666666667 118 9.33333333333 144 14 c 0
 150.666666667 16 158.666666667 20.6666666667 168 28 c 1
 258 194 l 1
 213 238 l 2
 185 264.666666667 161.333333333 278 142 278 c 0
 121.333333333 278 111 264 111 236 c 0
 111 212 119 184.666666667 135 154 c 1
 83 191.333333333 57 230.333333333 57 271 c 0
 57 292.333333333 64 311.666666667 78 329 c 0
 95.3333333333 349.666666667 120 360 152 360 c 0
 183.333333333 360 211 347.333333333 235 322 c 1
 287 250 l 1
 310 292 l 2
410 -9 m 256
 410 -19 415 -24 425 -24 c 256
 435 -24 440 -19 440 -9 c 256
 440 1 435 6 425 6 c 256
 415 6 410 1 410 -9 c 256
275 138 m 0
 271 129.333333333 264.666666667 127.333333333 256 132 c 0
 248 136 246 142 250 150 c 0
 254.666666667 158 261 160 269 156 c 256
 277 152 279 146 275 138 c 0
256 101 m 256
 252 93 246 91 238 95 c 256
 230 99 228 105 232 113 c 256
 236 121 242 123 250 119 c 256
 258 115 260 109 256 101 c 256
238 66 m 0
 234 58 228 56 220 60 c 0
 212 64.6666666667 210 71 214 79 c 256
 218 87 224 89 232 85 c 0
 240.666666667 80.3333333333 242.666666667 74 238 66 c 0
220 30 m 0
 215.333333333 21.3333333333 209 19.3333333333 201 24 c 0
 193 28 191 34 195 42 c 0
 199.666666667 50 206 52 214 48 c 256
 222 44 224 38 220 30 c 0
EndSplineSet
Validated: 524297
EndChar

StartChar: y
Encoding: 121 121 74
Width: 490
Flags: HW
LayerCount: 2
Back
Fore
SplineSet
322 -41 m 0
 340.666666667 -35 359.333333333 -32 378 -32 c 0
 409.333333333 -32 435.833333333 -39.3333333333 457.5 -54 c 128
 479.166666667 -68.6666666667 490 -88.6666666667 490 -114 c 0
 490 -144 483 -169 469 -189 c 0
 456.333333333 -205.666666667 435.333333333 -222.666666667 406 -240 c 0
 339.333333333 -278.666666667 290 -303.333333333 258 -314 c 1
 302 -268 330.333333333 -236.666666667 343 -220 c 0
 361.666666667 -196.666666667 377.333333333 -170.333333333 390 -141 c 0
 394.666666667 -130.333333333 397 -119.666666667 397 -109 c 0
 397 -78.3333333333 382 -63 352 -63 c 0
 337.333333333 -63 308.666666667 -72.8333333333 266 -92.5 c 128
 223.333333333 -112.166666667 193 -122 175 -122 c 0
 152.333333333 -122 141 -108.666666667 141 -82 c 0
 141 -56.6666666667 151.333333333 -18 172 34 c 1
 109 171 l 1
 63.6666666667 173 43.3333333333 173.333333333 48 172 c 1
 -17 341 l 1
 103 341 l 1
 207 106 l 1
 310 292 l 2
 316.666666667 305.333333333 320 316.666666667 320 326 c 0
 320 342.666666667 308.333333333 351 285 351 c 0
 274.333333333 351 262 349 248 345 c 1
 238 348 l 1
 525 426 l 1
 525 422 l 1
 521.666666667 420 503.666666667 410.666666667 471 394 c 0
 457 386 444.333333333 376.333333333 433 365 c 0
 418.333333333 350.333333333 407.333333333 335.666666667 400 321 c 2
 298 124 l 1
 312 91 l 1
 262 6 l 2
 240 -32.6666666667 229 -53.3333333333 229 -56 c 0
 229 -60 232.333333333 -62 239 -62 c 0
 249 -62 276.666666667 -55 322 -41 c 0
101 309 m 0
 97 318.333333333 90.6666666667 321.333333333 82 318 c 0
 72.6666666667 314 69.6666666667 307.333333333 73 298 c 256
 76.3333333333 288.666666667 82.6666666667 286 92 290 c 0
 101.333333333 293.333333333 104.333333333 299.666666667 101 309 c 0
117 266 m 0
 113.666666667 275.333333333 107.333333333 278.333333333 98 275 c 256
 88.6666666667 271.666666667 85.6666666667 265.333333333 89 256 c 0
 93 246.666666667 99.3333333333 243.666666667 108 247 c 0
 117.333333333 251 120.333333333 257.333333333 117 266 c 0
132 227 m 0
 128.666666667 236.333333333 122.333333333 239 113 235 c 0
 103.666666667 231.666666667 100.666666667 225.333333333 104 216 c 0
 108 206.666666667 114.666666667 204 124 208 c 0
 133.333333333 211.333333333 136 217.666666667 132 227 c 0
283 93 m 0
 279 102.333333333 272.333333333 105.333333333 263 102 c 0
 253.666666667 98 251 91.3333333333 255 82 c 0
 258.333333333 72.6666666667 264.666666667 70 274 74 c 0
 283.333333333 77.3333333333 286.333333333 83.6666666667 283 93 c 0
EndSplineSet
Validated: 524325
EndChar

StartChar: z
Encoding: 122 122 75
Width: 452
Flags: HW
LayerCount: 2
Back
Fore
SplineSet
421 39 m 0
 421 20.3333333333 411.666666667 11 393 11 c 256
 374.333333333 11 365 20.3333333333 365 39 c 0
 365 58.3333333333 374.333333333 68 393 68 c 256
 411.666666667 68 421 58.3333333333 421 39 c 0
410 276 m 1
 399.333333333 246.666666667 392.333333333 228.666666667 389 222 c 0
 377 198.666666667 358.666666667 180.666666667 334 168 c 2
 191 85 l 1
 195 81.6666666667 199.666666667 79 205 77 c 2
 402 0 l 1
 154 0 l 1
 127.333333333 6 105.333333333 18.3333333333 88 37 c 0
 68 59.6666666667 58 86 58 116 c 0
 58 151.333333333 71 180.666666667 97 204 c 0
 118.333333333 223.333333333 151.333333333 233 196 233 c 0
 230.666666667 233 258.666666667 227 280 215 c 1
 294 231 l 2
 310.666666667 246.333333333 319 263.333333333 319 282 c 0
 319 305.333333333 307.666666667 317 285 317 c 2
 126 317 l 2
 116.666666667 317 106.666666667 314.666666667 96 310 c 1
 93.3333333333 299.333333333 92 292.333333333 92 289 c 0
 92 288.333333333 97.6666666667 267 109 225 c 1
 105 225 l 1
 16 436 l 1
 58 432 l 1
 70 382 l 1
 76.6666666667 389.333333333 89 397.666666667 107 407 c 1
 310 407 l 1
 410 276 l 1
278 213 m 1
 262.666666667 216.333333333 248 216.666666667 234 214 c 0
 214 209.333333333 198.166666667 199.166666667 186.5 183.5 c 128
 174.833333333 167.833333333 169 150.666666667 169 132 c 0
 169 119.333333333 172 108.333333333 178 99 c 1
 278 213 l 1
109 141 m 256
 109 151.666666667 103.666666667 157 93 157 c 256
 82.3333333333 157 77 151.666666667 77 141 c 256
 77 130.333333333 82.3333333333 125 93 125 c 256
 103.666666667 125 109 130.333333333 109 141 c 256
109 92 m 256
 109 102.666666667 103.666666667 108 93 108 c 256
 82.3333333333 108 77 102.666666667 77 92 c 256
 77 81.3333333333 82.3333333333 76 93 76 c 256
 103.666666667 76 109 81.3333333333 109 92 c 256
EndSplineSet
Validated: 524321
EndChar

StartChar: braceleft
Encoding: 123 123 76
Width: 533
Flags: HW
LayerCount: 2
Back
Fore
SplineSet
383 502 m 1
 383 576.666666667 388.333333333 625.666666667 399 649 c 0
 407.666666667 668.333333333 420.333333333 684 437 696 c 0
 438.333333333 696.666666667 483 724.666666667 571 780 c 1
 567 786 l 1
 160 612 l 1
 178 608 l 1
 203.333333333 615.333333333 223.666666667 619 239 619 c 0
 263 619 279.666666667 609 289 589 c 0
 296.333333333 571.666666667 300 540.333333333 300 495 c 1
 169 293 l 1
 300 59 l 1
 300 15 296.333333333 -15.3333333333 289 -32 c 0
 281 -50.6666666667 265.333333333 -60 242 -60 c 0
 226.666666667 -60 205.333333333 -56 178 -48 c 1
 160 -53 l 1
 567 -231 l 1
 571 -225 l 1
 537.666666667 -205.666666667 493 -178 437 -142 c 0
 420.333333333 -129.333333333 407.666666667 -113.666666667 399 -95 c 0
 388.333333333 -71 383 -22 383 52 c 1
 252 293 l 1
 383 502 l 1
EndSplineSet
Validated: 524297
EndChar

StartChar: bar
Encoding: 124 124 77
Width: 215
Flags: HW
LayerCount: 2
Back
Fore
SplineSet
160 104 m 1
 181 76 l 1
 155 0 l 1
 81 0 l 1
 81 15 l 1
 91.6666666667 17 100 23.6666666667 106 35 c 1
 106 544 l 1
 85 571 l 1
 111 647 l 1
 185 647 l 1
 185 633 l 1
 173.666666667 630.333333333 165.333333333 623.333333333 160 612 c 1
 160 104 l 1
EndSplineSet
Validated: 524289
EndChar

StartChar: braceright
Encoding: 125 125 78
Width: 581
Flags: HW
LayerCount: 2
Back
Fore
SplineSet
348 502 m 1
 348 576.666666667 342.666666667 625.666666667 332 649 c 0
 323.333333333 668.333333333 310.666666667 684 294 696 c 0
 293.333333333 696.666666667 248.666666667 724.666666667 160 780 c 1
 164 786 l 1
 571 612 l 1
 553 608 l 1
 527.666666667 615.333333333 507.333333333 619 492 619 c 0
 468 619 451.666666667 609 443 589 c 0
 435 571.666666667 431 540.333333333 431 495 c 1
 562 293 l 1
 431 59 l 1
 431 15 434.666666667 -15.3333333333 442 -32 c 0
 450.666666667 -50.6666666667 466.333333333 -60 489 -60 c 0
 504.333333333 -60 525.666666667 -56 553 -48 c 1
 571 -53 l 1
 164 -231 l 1
 160 -225 l 1
 194 -205.666666667 238.666666667 -178 294 -142 c 0
 310.666666667 -129.333333333 323.333333333 -113.666666667 332 -95 c 0
 342.666666667 -71 348 -22 348 52 c 1
 480 293 l 1
 348 502 l 1
EndSplineSet
Validated: 524289
EndChar

StartChar: asciitilde
Encoding: 126 126 79
Width: 470
Flags: HW
LayerCount: 2
Back
Fore
SplineSet
192 310 m 1
 169.333333333 326.666666667 144.666666667 335 118 335 c 256
 91.3333333333 335 68.6666666667 325.666666667 50 307 c 128
 31.3333333333 288.333333333 22 265.666666667 22 239 c 0
 22 217 32.3333333333 193.5 53 168.5 c 128
 73.6666666667 143.5 94.6666666667 128.333333333 116 123 c 1
 90 139 77 158.666666667 77 182 c 0
 77 198 83 212 95 224 c 128
 107 236 121 242 137 242 c 0
 142.333333333 242 147.333333333 241.333333333 152 240 c 2
 225 221 l 1
 245 161 l 1
 273 141 298 131 320 131 c 0
 346.666666667 131 369.333333333 140.333333333 388 159 c 128
 406.666666667 177.666666667 416 200.333333333 416 227 c 0
 416 249 405.666666667 272.5 385 297.5 c 128
 364.333333333 322.5 343.333333333 337.666666667 322 343 c 1
 347.333333333 327.666666667 360 309 360 287 c 0
 360 271 353.666666667 257 341 245 c 128
 328.333333333 233 313.666666667 227 297 227 c 0
 291.666666667 227 286 228 280 230 c 2
 210 250 l 1
 192 310 l 1
EndSplineSet
Validated: 524297
EndChar

StartChar: tilde
Encoding: 732 732 81
Width: 215
Flags: HW
LayerCount: 2
Back
Fore
SplineSet
115 675 m 1
 103 683.666666667 90 688 76 688 c 0
 62.6666666667 688 51.1666666667 683.166666667 41.5 673.5 c 128
 31.8333333333 663.833333333 27 652 27 638 c 0
 27 626.666666667 32.3333333333 614.666666667 43 602 c 128
 53.6666666667 589.333333333 64.3333333333 581.666666667 75 579 c 1
 61.6666666667 587 55 597 55 609 c 0
 55 617.666666667 58 625 64 631 c 128
 70 637 77.3333333333 640 86 640 c 0
 88.6666666667 640 91.3333333333 639.666666667 94 639 c 2
 131 629 l 1
 142 598 l 1
 156 588 168.666666667 583 180 583 c 0
 194 583 205.833333333 587.833333333 215.5 597.5 c 128
 225.166666667 607.166666667 230 619 230 633 c 0
 230 643.666666667 224.666666667 655.5 214 668.5 c 128
 203.333333333 681.5 192.333333333 689.333333333 181 692 c 1
 194.333333333 684 201 674.333333333 201 663 c 0
 201 655 197.666666667 648 191 642 c 128
 184.333333333 636 177 633 169 633 c 0
 165.666666667 633 162.666666667 633.333333333 160 634 c 2
 124 644 l 1
 115 675 l 1
EndSplineSet
Validated: 524297
EndChar
